<?xml version="1.0" encoding="utf-8"?>
<!-- Generator: Adobe Illustrator 17.1.0, SVG Export Plug-In . SVG Version: 6.00 Build 0)  -->
<!DOCTYPE svg PUBLIC "-//W3C//DTD SVG 1.1//EN" "http://www.w3.org/Graphics/SVG/1.1/DTD/svg11.dtd">
<svg version="1.1" id="Layer_1" xmlns="http://www.w3.org/2000/svg" xmlns:xlink="http://www.w3.org/1999/xlink" x="0px" y="0px"
	 width="49.8px" height="36.2px" viewBox="0 0 49.8 36.2" enable-background="new 0 0 49.8 36.2" xml:space="preserve">
<g>
	<path fill="#404040" d="M46.4,9.9c-1.9,0-3.4,1.2-3.4,2.6c0,0.2,0,0.4,0.1,0.6l-1.5,0.6c0,0-4-10.6-5.7-11.8C34,0.6,30.9,0,24.9,0
		c-6,0-9.1,0.6-11,1.9c-1.7,1.2-5.7,11.8-5.7,11.8l-1.5-0.6c0.1-0.2,0.1-0.4,0.1-0.6c0-1.4-1.5-2.6-3.4-2.6C1.5,9.9,0,11.1,0,12.5
		c0,1.4,1.5,2.6,3.4,2.6c0.7,0,1.3-0.2,1.9-0.4l0.2,1.7c0.4-0.3,0.9-0.7,1.3-0.9c0.8-0.5,1.6-0.8,2.6-1.1l4.4-10.1
		c0,0,4.4-0.9,11-0.9c6.6,0,11,0.9,11,0.9l4.4,10.1c1,0.3,1.8,0.7,2.6,1.1c0.5,0.3,0.9,0.6,1.4,0.9l0.2-1.7c0.5,0.3,1.2,0.4,1.9,0.4
		c1.9,0,3.4-1.2,3.4-2.6C49.8,11.1,48.3,9.9,46.4,9.9z"/>
	<path fill="#404040" d="M24.9,13.8c-21.6,0-20.9,7.3-20.9,7.8c0,0.6,0,13.7,0,13.7c0,0.5,0.4,0.9,0.9,0.9h6.3
		c0.5,0,0.9-0.4,0.9-0.9V31h25.9v4.4c0,0.5,0.4,0.9,0.9,0.9H45c0.5,0,0.9-0.4,0.9-0.9c0,0,0-13.2,0-13.7
		C45.8,21.1,46.5,13.8,24.9,13.8z M12.1,24c-1.7,0-3-1.4-3-3c0-1.7,1.4-3,3-3s3,1.4,3,3C15.1,22.7,13.8,24,12.1,24z M31.2,28.4
		c0,0.3-0.3,0.6-0.6,0.6H19.2c-0.3,0-0.6-0.3-0.6-0.6v-4.8c0-0.3,0.3-0.6,0.6-0.6h11.4c0.3,0,0.6,0.3,0.6,0.6V28.4z M37.7,24
		c-1.7,0-3-1.4-3-3c0-1.7,1.4-3,3-3c1.7,0,3,1.4,3,3C40.7,22.7,39.4,24,37.7,24z"/>
	<path fill="#404040" d="M31.6,10.3c1.7,0,3.2,1.2,3.5,2.8c0.8,0.1,1.5,0.2,2.1,0.4c-0.2-2.9-2.7-5.3-5.7-5.3
		c-2.7,0-4.9,1.8-5.5,4.3c0.7,0,1.5,0,2.1,0C28.8,11.3,30.1,10.3,31.6,10.3z"/>
</g>
<g>
</g>
<g>
</g>
<g>
</g>
<g>
</g>
<g>
</g>
<g>
</g>
</svg>
