<?xml version="1.0" encoding="utf-8"?>
<!-- Generator: Adobe Illustrator 17.1.0, SVG Export Plug-In . SVG Version: 6.00 Build 0)  -->
<!DOCTYPE svg PUBLIC "-//W3C//DTD SVG 1.1//EN" "http://www.w3.org/Graphics/SVG/1.1/DTD/svg11.dtd">
<svg version="1.1" id="Layer_1" xmlns="http://www.w3.org/2000/svg" xmlns:xlink="http://www.w3.org/1999/xlink" x="0px" y="0px"
	 width="48.1px" height="66.9px" viewBox="0 0 48.1 66.9" enable-background="new 0 0 48.1 66.9" xml:space="preserve">
<g>
	<g>
		<path fill="#404040" d="M29.7,50.5V16.1c0,0,5.6,2.7,9.8,7.5c5.2,5.9,9.6,13.8,8.3,26.8H29.7z"/>
		<g>
			<polygon fill="#404040" points="26.2,33.3 26.2,0 11.2,33.3 			"/>
			<polygon fill="#404040" points="9.8,36.3 3.4,50.5 26.2,50.5 26.2,36.3 			"/>
		</g>
	</g>
	<path fill="#404040" d="M37.4,66.9c8.3,0,10.1-12.9,10.1-12.9s-26.5,0-29,0c-2.4,0-4,3-4,3H0c0,0,1.4,9.8,9.6,9.8
		c2.5,0,3.9-1.1,4.4-2.4c0.5-1.3,0.1-2.7,0.1-2.7c2.9,0.5,5.3,5.2,9.4,5.2c2.5,0,3.9-1.1,4.4-2.4c0.5-1.3,0.1-2.7,0.1-2.7
		C30.9,62.2,33.3,66.9,37.4,66.9z"/>
</g>
<g>
</g>
<g>
</g>
<g>
</g>
<g>
</g>
<g>
</g>
<g>
</g>
</svg>
