<?xml version="1.0" encoding="utf-8"?>
<!-- Generator: Adobe Illustrator 18.1.1, SVG Export Plug-In . SVG Version: 6.00 Build 0)  -->
<!DOCTYPE svg PUBLIC "-//W3C//DTD SVG 1.1//EN" "http://www.w3.org/Graphics/SVG/1.1/DTD/svg11.dtd">
<svg version="1.1" id="Layer_1" xmlns="http://www.w3.org/2000/svg" xmlns:xlink="http://www.w3.org/1999/xlink" x="0px" y="0px"
	 width="31.9px" height="25.7px" viewBox="0 0 31.9 25.7" enable-background="new 0 0 31.9 25.7" xml:space="preserve">
<path fill="#404040" d="M26,17.3c-1.6,0-3,1.1-3.4,2.6h-6.3c-0.4-1.3-1.5-2.3-2.8-2.5l-0.6-1.7H27l3.3-10.2H9.6L8.3,1.3H1.5v2.1h5.3
	l4.6,14.2c-1.2,0.6-2,1.8-2,3.2c0,1.9,1.6,3.5,3.5,3.5c1.6,0,3-1.1,3.4-2.6h6.3c0.4,1.5,1.8,2.6,3.4,2.6c1.9,0,3.5-1.6,3.5-3.5
	C29.5,18.9,27.9,17.3,26,17.3z M12.9,22.7c-1,0-1.9-0.8-1.9-1.9c0-0.7,0.3-1.2,0.9-1.6l0,0l1-0.3c1,0,1.9,0.8,1.9,1.9
	C14.8,21.8,14,22.7,12.9,22.7z M26,22.7c-1,0-1.9-0.8-1.9-1.9c0-1,0.8-1.9,1.9-1.9c1,0,1.9,0.8,1.9,1.9C27.9,21.8,27,22.7,26,22.7z"
	/>
</svg>
