<?xml version="1.0" encoding="utf-8"?>
<!-- Generator: Adobe Illustrator 18.1.1, SVG Export Plug-In . SVG Version: 6.00 Build 0)  -->
<svg version="1.1" id="Layer_1" xmlns="http://www.w3.org/2000/svg" xmlns:xlink="http://www.w3.org/1999/xlink" x="0px" y="0px"
	 width="36px" height="36px" viewBox="-201.8 475 36 36" enable-background="new -201.8 475 36 36" xml:space="preserve">
<symbol  id="_x24__i_2" viewBox="-15.7 -15.7 31.3 31.3">
	<polygon fill="#FFFFFF" stroke="#6C953C" stroke-miterlimit="10" points="15.2,-15.2 -15.2,-15.2 -15.2,15.2 15.2,15.2 	"/>
	<g>
		<path fill="#6C953C" stroke="#6C953C" stroke-width="0.453" stroke-miterlimit="10" d="M-1.1-8.5v2c-1.4,0.1-2.7,0.4-3.5,0.9
			L-4-3.2c0.9-0.5,2.1-0.9,3.5-0.9c1.2,0,2,0.5,2,1.3C1.4-2,0.8-1.5-0.8-1C-3-0.3-4.5,0.8-4.5,2.8c0,1.8,1.3,3.3,3.5,3.7v2h2V6.7
			c1.4-0.1,2.3-0.4,3-0.7L3.5,3.6C2.9,3.9,2,4.3,0.5,4.3c-1.4,0-1.8-0.6-1.8-1.2c0-0.7,0.7-1.1,2.5-1.8c2.5-0.9,3.5-2,3.5-3.9
			c0-1.9-1.3-3.4-3.7-3.9v-2.1H-1.1z"/>
	</g>
</symbol>
<use xlink:href="#_x24__i_2"  width="31.3" height="31.3" id="XMLID_22_" x="-15.7" y="-15.7" transform="matrix(1.1487 0 0 -1.1487 -183.8465 493.0093)" overflow="visible"/>
</svg>
