<?xml version="1.0" encoding="utf-8"?>
<!-- Generator: Adobe Illustrator 17.1.0, SVG Export Plug-In . SVG Version: 6.00 Build 0)  -->
<!DOCTYPE svg PUBLIC "-//W3C//DTD SVG 1.1//EN" "http://www.w3.org/Graphics/SVG/1.1/DTD/svg11.dtd">
<svg version="1.1" id="Layer_1" xmlns="http://www.w3.org/2000/svg" xmlns:xlink="http://www.w3.org/1999/xlink" x="0px" y="0px"
	 width="23px" height="15.4px" viewBox="0 0 23 15.4" enable-background="new 0 0 23 15.4" xml:space="preserve">
<g>
	<path fill="#5281AE" d="M11.4,1.8C8.5,1.8,7.2,4,7.2,6c0,2.5,1.7,4.3,4.5,4.3c1.1,0,2.1-0.3,2.9-0.7l-0.3-1.7
		C13.6,8,12.9,8.2,12,8.2c-1.2,0-2.3-0.5-2.3-1.5H15c0-0.2,0.1-0.5,0.1-1C15.1,3.7,14,1.8,11.4,1.8z M9.6,5c0.1-0.6,0.5-1.6,1.6-1.6
		c1.2,0,1.5,1,1.5,1.6H9.6z"/>
	<path fill="#5281AE" d="M20.2,0H2.8C1.2,0,0,1.2,0,2.8v9.9c0,1.5,1.2,2.8,2.8,2.8h17.5c1.5,0,2.8-1.2,2.8-2.8V2.8
		C23,1.2,21.8,0,20.2,0z M11.5,13.3c-1.8,0-7.6-7.1-10.7-11c0.2-0.9,1-1.5,1.9-1.5h17.5c0.9,0,1.7,0.7,1.9,1.5
		C19.1,6.2,13.3,13.3,11.5,13.3z"/>
</g>
<g>
</g>
<g>
</g>
<g>
</g>
<g>
</g>
<g>
</g>
<g>
</g>
</svg>
