<?xml version="1.0" encoding="utf-8"?>
<!-- Generator: Adobe Illustrator 15.0.0, SVG Export Plug-In . SVG Version: 6.00 Build 0)  -->
<!DOCTYPE svg PUBLIC "-//W3C//DTD SVG 1.1//EN" "http://www.w3.org/Graphics/SVG/1.1/DTD/svg11.dtd">
<svg version="1.1" id="Layer_1" xmlns="http://www.w3.org/2000/svg" xmlns:xlink="http://www.w3.org/1999/xlink" x="0px" y="0px"
	 width="44.2px" height="30.531px" viewBox="0 -1 44.2 30.531" enable-background="new 0 -1 44.2 30.531" xml:space="preserve">
<symbol  id="help_long" viewBox="-22.05 -14.3 44.1 28.6">
	<g>
		<g>
			<g>
				<path fill="#3D6294" d="M-7.851,10.5c5.8,0,10.5-4.7,10.5-10.5s-4.7-10.5-10.5-10.5c-5.8,0-10.5,4.7-10.5,10.5
					S-13.65,10.5-7.851,10.5 M-7.851,14.3c-7.8,0-14.2-6.399-14.2-14.3s6.4-14.3,14.2-14.3c7.8,0,14.3,6.399,14.3,14.3
					S0.05,14.3-7.851,14.3L-7.851,14.3z"/>
			</g>
		</g>
		<polygon fill="#3D6294" points="-19.25,-14.3 -11.05,-12.6 -15.95,-9.9 		"/>
		<g>
			<path fill="#3D6294" d="M6.75,7.7h13.7c0.9,0,1.6,0.7,1.6,1.6V11c0,0.9-0.7,1.6-1.6,1.6h-18C4.25,11.3,5.75,9.6,6.75,7.7z"/>
			<path fill="#3D6294" d="M8.55-3h11.9c0.9,0,1.6,0.7,1.6,1.6V0.2c0,0.899-0.7,1.6-1.6,1.6h-11.8c0.1-0.6,0.1-1.3,0.1-1.899
				C8.75-1.1,8.649-2.1,8.55-3z"/>
			<path fill="#3D6294" d="M1.95-13.1V-13.7h18.5c0.9,0,1.6,0.7,1.6,1.601v1.6c0,0.9-0.7,1.6-1.6,1.6h-14.3
				C5.05-10.5,3.649-12,1.95-13.1z"/>
		</g>
		<g>
			<path fill="#3D6294" d="M-9.25-1.5c0,2.3,2.9,2.6,2.9,4c0,0.6-0.5,1.1-1.5,1.1s-1.8-0.5-2.4-1.199l-1.6,1.8
				c1,1.2,2.6,1.899,4.3,1.899c2.5,0,4.1-1.3,4.1-3.1c0-2.9-3.3-3.1-3.3-4.7c0-0.3,0.2-0.6,0.4-0.8l-2.3-0.7
				C-9.05-2.8-9.25-2.2-9.25-1.5z M-9.25-5.8c0,0.899,0.7,1.6,1.6,1.6s1.6-0.7,1.6-1.6c0-0.9-0.7-1.601-1.6-1.601
				S-9.25-6.7-9.25-5.8z"/>
		</g>
	</g>
</symbol>
<use xlink:href="#help_long"  width="44.1" height="28.6" id="XMLID_58_" x="-22.05" y="-14.3" transform="matrix(0.9965 0 0 -0.9965 22.1226 14.3062)" overflow="visible"/>
</svg>
