<?xml version="1.0" encoding="utf-8"?>
<!-- Generator: Adobe Illustrator 18.1.1, SVG Export Plug-In . SVG Version: 6.00 Build 0)  -->
<svg version="1.1" id="Layer_1" xmlns="http://www.w3.org/2000/svg" xmlns:xlink="http://www.w3.org/1999/xlink" x="0px" y="0px"
	 width="36px" height="36px" viewBox="-357.1 475 36 36" enable-background="new -357.1 475 36 36" xml:space="preserve">
<symbol  id="_x3F__i_2" viewBox="-15.7 -15.7 31.3 31.3">
	<polygon fill="#FFFFFF" stroke="#5381AC" stroke-miterlimit="10" points="15.2,-15.2 -15.2,-15.2 -15.2,15.2 15.2,15.2 	"/>
	<g>
		<path fill="#5381AC" d="M-5,5.8c1.4,1.7,3.2,2.7,5.2,2.7C2.9,8.5,5,7,5,4.2c0-2.7-3.2-3.4-3.2-4.7v-2.1h-3.8v2.6
			c0,1.9,3.2,3,3.2,4.2c0,0.8-0.8,1-1.5,1c-0.9,0-1.9-0.9-2.6-1.7L-5,5.8z M2.2-6.3c0-1.2-1-2.2-2.2-2.2s-2.2,1-2.2,2.2
			s1,2.2,2.2,2.2S2.2-5.1,2.2-6.3z"/>
	</g>
</symbol>
<use xlink:href="#_x3F__i_2"  width="31.3" height="31.3" x="-15.7" y="-15.7" transform="matrix(1.1487 0 0 -1.1487 -339.0969 493.0097)" overflow="visible"/>
</svg>
