<?xml version="1.0" encoding="utf-8"?>
<!-- Generator: Adobe Illustrator 17.1.0, SVG Export Plug-In . SVG Version: 6.00 Build 0)  -->
<!DOCTYPE svg PUBLIC "-//W3C//DTD SVG 1.1//EN" "http://www.w3.org/Graphics/SVG/1.1/DTD/svg11.dtd">
<svg version="1.1" id="Layer_1" xmlns="http://www.w3.org/2000/svg" xmlns:xlink="http://www.w3.org/1999/xlink" x="0px" y="0px"
	 width="53.9px" height="52.2px" viewBox="0 0 53.9 52.2" enable-background="new 0 0 53.9 52.2" xml:space="preserve">
<g>
	<rect x="22.5" y="25.4" fill="#404040" width="6" height="7.3"/>
	<path fill="#404040" d="M52,44.8c-0.8-0.4-1.7-0.3-2.3,0.1c0.1-0.4,0.1-0.8,0.1-1.3c0-2.7-1.4-5-3.3-5.9V0h-7.4v9.5l-3-5.1
		c-0.2-0.4-0.7-0.7-1.2-0.7H8.9c-0.5,0-1,0.3-1.2,0.7l-7.5,13c-0.1,0.2-0.1,0.3-0.1,0.5v3.5h43.6v24.5c-0.3,1.2-1.3,2-2.6,2H16.5
		v-9.2h-1.7c-0.5,0-0.9-0.4-0.9-0.9c0-0.5,0.4-0.9,0.9-0.9h1.7V25.4H5.1v22.5H1.4c-0.7,0-1.4,0.6-1.4,1.4v2.9h50.6
		C54.1,52.2,55.3,46.5,52,44.8z"/>
	<rect x="22.5" y="35.6" fill="#404040" width="6" height="7.3"/>
	<rect x="31.5" y="35.6" fill="#404040" width="6" height="7.3"/>
	<rect x="31.5" y="25.4" fill="#404040" width="6" height="7.3"/>
</g>
<g>
</g>
<g>
</g>
<g>
</g>
<g>
</g>
<g>
</g>
<g>
</g>
</svg>
