<?xml version="1.0" encoding="utf-8"?>
<!-- Generator: Adobe Illustrator 17.1.0, SVG Export Plug-In . SVG Version: 6.00 Build 0)  -->
<!DOCTYPE svg PUBLIC "-//W3C//DTD SVG 1.1//EN" "http://www.w3.org/Graphics/SVG/1.1/DTD/svg11.dtd">
<svg version="1.1" id="Layer_1" xmlns="http://www.w3.org/2000/svg" xmlns:xlink="http://www.w3.org/1999/xlink" x="0px" y="0px"
	 width="58.2px" height="57.1px" viewBox="0 0 58.2 57.1" enable-background="new 0 0 58.2 57.1" xml:space="preserve">
<g>
	<path fill="#404040" d="M47.2,35.5c1.7,0.9,3.9,0.1,5-1.8c1.1-1.9,0.5-4.3-1.2-5.2c-1.7-0.9-3.9-0.1-5,1.8
		C45,32.3,45.5,34.6,47.2,35.5z"/>
	<path fill="#404040" d="M39.2,43.1l-2.8-12c0,0-2.4-0.1-4.5-0.1c-2.1,0-4.7,0-4.7,0l-2.9,11.9c1.1,0.7,2.1,1.1,3.1,1.5l0.6,11.4
		c-1.3,1-1,1.4-1,1.4h1.1h2.5h0.4l0.6-12c0.2,0,0.3,0,0.5,0l0.7,12h0.4h2.4h1.1c0,0,0.3-0.4-1.1-1.4l0.6-11.3
		C38.1,43.8,39.2,43.1,39.2,43.1z"/>
	<path fill="#404040" d="M25.1,35.6c0-0.1,0-0.2,0-0.4c1.8-2.6,2-5.3,2.2-7.7c0.1-2.2,0.3-4.1,1.6-5.8l-2.4-1.7
		c-1.8,2.5-2,5-2.1,7.4c-0.1,2-0.3,3.9-1.3,5.7c-2.6-3.2-3.2-7.7-3.7-11.7c-0.5-3.8-0.9-7.2-3.1-8.8c-0.7-0.6-1.5-1-2.4-1.3
		c0.1,0,0.2,0,0.3-0.1c2.8-0.9,4.6-4,3.9-7c-0.7-3-3.5-4.7-6.3-3.8c-2.8,0.9-4.6,4-3.9,7c0.6,2.8,3.2,4.5,5.9,3.9
		c0.6,0.3,0.9,0.8,1.4,1.4c2.9,4-0.6,14.1-0.6,14.1s-2-15.4-5.5-14.9c0,0,0,0,0,0l0,0c-3,1.4-9.7,8.2-8.7,12.4
		c0.5,2.2,4.2,6,5.9,7.7l0.8,25.2h1.6h3.2h2.1c0,0,1.1-0.2-2.1-1.7V37.1c0.4,0,0.8,0,1.2,0v18c1.8,1.1,2.1,1.7,2.1,2h1.4h1.4
		c0,0,0.4-0.4-1.3-1.3L18,31.9c0.7,1.5,1.6,2.9,2.8,4.1c0.2,1,1.1,1.8,2.2,1.8C24.1,37.8,25.1,36.8,25.1,35.6z M5.9,26.1
		c-0.8-1-1.6-2.1-1.7-2.6c-0.3-1.3,0.7-2.8,1.8-3.9C5.9,21.4,5.9,23.6,5.9,26.1z"/>
	<path fill="#404040" d="M32,19.9c3.7,0.4,6-1,6-1c-1.2-2.7,2.6-11.6-4-12.2c-7.9-0.8-7.3,10.5-7.3,10.5S28.2,19.5,32,19.9z"/>
	<path fill="#404040" d="M58.2,43.9c-0.7-5.2-5-7.4-8-7.7c-1.3,0-2.4-0.4-5.3,1.8c-0.2,0.2-2.3,2.3-2.9,2.5
		c-0.2-0.4-0.3-1.2-0.3-2.3c0.6-0.4,1-1.1,1-1.9c0-1-0.6-1.9-1.5-2.2c-1.2-1.2-1.6-2.8-1.6-5.2c0-2.5,0-5.3-2.1-7.7l-2.2,1.1
		c1.4,1.5,1.4,4.4,1.4,6.6c0,2.3,0.3,4.9,2.2,7c0,0.1,0,0.2,0,0.3c0,0.6,0.2,1.2,0.6,1.6c0,1.6,0.2,3.5,1.1,4.4
		c0.4,0.3,0.8,0.5,1.3,0.5c0.1,0,0.1,0,0.2,0c0.7-0.1,2.4-1.4,3.1-1.9c0,0.4,0,1.7,0,2.1l-0.9,8.4c0,0,1-0.2,2-0.4
		c0.1,1.5,0.3,3.2,0.3,4.7c-1.6,1.1-1.2,1.5-1.2,1.5h1.3h2.3h0.2c0-2.4-0.3-4.8-0.6-6.7c0,0,0.1,0,0.1,0c0.4-0.1,0.8-0.2,1.2-0.3
		c0.6,1.8,1.7,3.5,3.7,4.4c0.1,0.7,0.4,1.4,0.9,1.4c1.1,0.1,1.2-3.1,1.2-3.1s-0.8-0.1-1.7-0.6c-0.9-0.6-1.5-1.4-2-2.6
		c1.7-0.5,3-0.9,3-0.9S53,45,52.3,42.4c0,0,0-0.1,0-0.1c-0.3-1.5-0.5-2.5-0.7-3.6c1.5,0.5,3,1.8,4.1,5.1c0.1,0.2,0.1,1,0.4,1.1
		c0.4,0.2,0.4-1.1,0.5-0.9C57.4,46.1,58.4,45.1,58.2,43.9z"/>
</g>
<g>
</g>
<g>
</g>
<g>
</g>
<g>
</g>
<g>
</g>
<g>
</g>
</svg>
