<?xml version="1.0" encoding="utf-8"?>
<!-- Generator: Adobe Illustrator 18.1.1, SVG Export Plug-In . SVG Version: 6.00 Build 0)  -->
<svg version="1.1" id="Layer_1" xmlns="http://www.w3.org/2000/svg" xmlns:xlink="http://www.w3.org/1999/xlink" x="0px" y="0px"
	 width="36px" height="36px" viewBox="-253.6 475 36 36" enable-background="new -253.6 475 36 36" xml:space="preserve">
<symbol  id="secure_2" viewBox="-15.7 -15.7 31.3 31.3">
	<polygon fill="#FFFFFF" stroke="#5381AC" stroke-miterlimit="10" points="15.2,-15.2 -15.2,-15.2 -15.2,15.2 15.2,15.2 	"/>
	<g>
		<path fill="#5381AC" d="M4.5,2.4v1.9c0,2.3-1.9,4.2-4.2,4.2s-4.2-1.9-4.2-4.2V2.4h-2.3V-8.5h13V2.4H4.5z M-1.9,4.3
			c0,1.3,1,2.3,2.3,2.3s2.3-1,2.3-2.3V2.4h-4.5V4.3z"/>
		<g>
			<path fill="#FFFFFF" d="M1.7-2.1c0-0.8-0.6-1.4-1.4-1.4s-1.4,0.6-1.4,1.4s0.6,1.4,1.4,1.4S1.7-1.4,1.7-2.1z"/>
			<polygon fill="#FFFFFF" points="1.3,-5.2 -0.5,-5.2 -0.3,-2.8 1.1,-2.8 			"/>
		</g>
	</g>
</symbol>
<use xlink:href="#secure_2"  width="31.3" height="31.3" id="XMLID_4_" x="-15.7" y="-15.7" transform="matrix(1.1487 0 0 -1.1487 -235.597 493.0093)" overflow="visible"/>
</svg>
