<?xml version="1.0" encoding="utf-8"?>
<!-- Generator: Adobe Illustrator 17.1.0, SVG Export Plug-In . SVG Version: 6.00 Build 0)  -->
<!DOCTYPE svg PUBLIC "-//W3C//DTD SVG 1.1//EN" "http://www.w3.org/Graphics/SVG/1.1/DTD/svg11.dtd">
<svg version="1.1" id="Layer_1" xmlns="http://www.w3.org/2000/svg" xmlns:xlink="http://www.w3.org/1999/xlink" x="0px" y="0px"
	 width="96.8px" height="52.6px" viewBox="0 0 96.8 52.6" enable-background="new 0 0 96.8 52.6" xml:space="preserve">
<path fill-rule="evenodd" clip-rule="evenodd" fill="#404040" d="M96.8,34.2c-0.8-4.4-2.9-8-6.5-10.6c-5-3.7-10.5-4.2-16.3-2.2
	c-2-3.8-4-7.5-5.9-11.4c1.5,0.5,3,0.9,4.7,0.9c0-3.7,0-7.3,0-10.9c-0.4,0-0.8,0-1.3,0c-0.2,0.1-0.4,0.2-0.6,0.2
	c-2.5,0.5-4.7,1.4-6.1,3.9c-0.4-0.7-0.7-1.3-1-1.8c-0.6-1.1-1.3-1.5-2.6-1.2c-2.7,0.6-5.4,1.2-8,1.8C52.7,3,52.2,3,51.7,2.6
	c-0.5-0.4-1.2-0.6-1.9-0.4c-1.2,0.3-2.4,0.5-3.6,0.9c-1.4,0.4-2.1,1.9-1.8,3.2c0.4,1.4,1.7,2.2,3.1,1.9c0.8-0.2,1.6-0.4,2.4-0.5
	c1.4-0.2,2.5-0.7,3-2.2c2.5-0.6,4.9-1.1,7.3-1.7c0.4,0.8,0.8,1.6,1.2,2.3c0.1,0.2,0.2,0.5,0.4,0.9c-1.1-0.3-1.9-0.2-2.6,0.7
	c-0.6,0.9-0.3,1.8,0.1,2.7c-5.4,1.1-9.7,4.4-14.1,7.3c-0.2-0.2-0.4-0.4-0.6-0.6c-1.4-1.3-3.2-2.2-5.3-1.1c-0.4,0.2-0.9,0.3-1.4,0.5
	c-1.9,0.6-3.7,0.5-5.3-0.7c-1.5-1.1-3.1-2.2-4.7-3.3c-0.9-0.7-1.9-1-2.9-0.3c-0.5,0.3-0.9,0.9-1.5,1.4c-1.2-0.5-2.6-0.3-3.9-0.2
	c-2.5,0.1-5,0.6-7.4-0.4c-0.7-0.3-1.1,0-1.1,0.9c0.1,1.5,0,3,0.8,4.3c-3.2,1.6-5.8,3.7-7.9,6.5c-2.1,2.8-3.4,5.9-4,9.3
	c2.5,0.4,3.5,0,4.7-2c0.6-1.1,1.2-2.2,1.9-3.2c3.8-5.8,9.2-8.8,16.2-8.2c6.9,0.5,12.8,5.3,14.9,11.9c0.1,0.4,0.2,0.7,0.3,1.2
	c-0.7,0-1.3,0-1.9,0c-2.7-9-11-12.3-17.5-11c-6.8,1.3-12.1,7.1-12.4,14.2c-0.3,7.3,4.4,13.6,11.3,15.3c3.4,0.9,6.7,0.7,9.9-0.8
	c4.8-2.2,7.6-6,8.8-11.1c0.5,0,0.9,0,1.3,0c4.1,0,8.2,0,12.3,0c0.8,0,1.7-0.1,2.5-0.3c2.7-0.7,4.7-2.5,6.2-4.8
	c1.4-2.3,2.8-4.5,4.3-6.8c1.9-3.1,3.7-6.1,4.9-9.6c0,0,0.1-0.1,0.2-0.1c0.1,0.1,0.2,0.3,0.3,0.4c0.8,1.5,1.6,3,2.4,4.5
	c-8,6.1-7.8,15.9-5.5,19.8c0.3-0.2,0.7-0.4,1-0.6c3.7,8.9,12,11,17.8,9.6c3.2-0.7,5.9-2.3,8-4.8c3.3-3.8,4.3-8.2,3.4-13.2
	C95.8,34.2,96.3,34.2,96.8,34.2z M20.2,47.7c-5-0.4-9.1-4.9-9.1-10c-0.1-5.6,3.9-10,9.5-10.5c4.3-0.4,9.4,2.8,10.2,6.5
	c-0.4,0-0.8,0-1.2,0c-2.7,0-5.4,0-8,0c-2,0-3.4,1.5-3.3,3.5c0.1,1.3,1,2.5,2.3,2.8c0.5,0.1,1,0.2,1.6,0.2c2.6,0,5.3,0,7.9,0
	c0.3,0,0.7,0,1.1,0C30.3,44.8,25.4,48.1,20.2,47.7z M85.1,46.6c-4.9,2.5-10.9,0.7-13.7-4.1c-2.8-4.8-0.9-10.6,2.4-12.9
	c0.2,0.3,0.4,0.7,0.6,1c1.6,3,3.2,6,4.8,9c0.3,0.6,0.7,1.1,1.5,1.3c0.8,0.1,1.5,0,2-0.6c0.5-0.6,0.5-1.4,0.3-2.1
	c-0.1-0.3-0.3-0.6-0.4-0.8c-1.5-2.8-3-5.7-4.5-8.5c-0.2-0.3-0.3-0.7-0.5-1.1c3.7-1.5,9.8,0,12.3,5.4C92,38.1,90,44.1,85.1,46.6z"/>
<g>
</g>
<g>
</g>
<g>
</g>
<g>
</g>
<g>
</g>
<g>
</g>
</svg>
