<?xml version="1.0" encoding="utf-8"?>
<!-- Generator: Adobe Illustrator 18.1.1, SVG Export Plug-In . SVG Version: 6.00 Build 0)  -->
<svg version="1.1" id="Layer_1" xmlns="http://www.w3.org/2000/svg" xmlns:xlink="http://www.w3.org/1999/xlink" x="0px" y="0px"
	 width="30.2px" height="30.3px" viewBox="-290 381.7 30.2 30.3" enable-background="new -290 381.7 30.2 30.3"
	 xml:space="preserve">
<path fill="#6F9A4C" d="M-274.7,389.5c6,0.1,6.4-1.4,6.3,6.3c0,2.1-0.2,3.6-1.6,5.9c-0.8,1.3-0.3,3.5-0.3,5.3
	c-0.1,5,0.9,4.5-4.5,4.5c-5.2,0-4.2,0.4-4.3-4.4c0-1.3,0-2.7,0-4c0-0.5,0-1.2-0.2-1.4c-2.5-2.8-1.7-8.8-1.7-10.7
	c0-1.1,0.8-1.5,1.9-1.5C-277.7,389.5-276.2,389.5-274.7,389.5z"/>
<path fill="#679543" d="M-260.2,395.6c0,1.9,0.5,5-1.9,6.2c-0.2,0.1-0.1,0.9-0.1,1.4c0,1.5-0.1,3,0,4.5c0.1,1.2,0.6,3.3-0.5,3.5
	c-1.5,0.3-3.3,0.3-4.9,0.2c-0.8,0-0.8-0.7-0.8-1.3c0-1.8,0-3.7,0-5.5c0-0.3,0-0.8,0.1-1c2.5-2.5,1.8-5.2,1.9-7.9c0-1,0-2,0-3
	c0.2-3.6-0.6-3.1,3.4-3.3c2-0.1,2.8,0.4,2.8,2.7C-260.3,393.2-260.2,394.3-260.2,395.6z"/>
<circle fill="#6F9A4C" cx="-274.8" cy="385.4" r="3.1"/>
<circle fill="#6F9A4C" cx="-266.3" cy="385.4" r="3.1"/>
<circle fill="#6F9A4C" cx="-283.3" cy="385.4" r="3.1"/>
<path fill="#679543" d="M-289.2,395.6c0,1.9-0.5,5,1.9,6.2c0.2,0.1,0.1,0.9,0.1,1.4c0,1.5,0.1,3,0,4.5c-0.1,1.2-0.6,3.3,0.5,3.5
	c1.5,0.3,3.3,0.3,4.9,0.2c0.8,0,0.8-0.7,0.8-1.3c0-1.8,0-3.7,0-5.5c0-0.3,0-0.8-0.1-1c-2.5-2.5-1.8-5.2-1.9-7.9c0-1,0-2,0-3
	c-0.2-3.6,0.5-3.1-3.4-3.3c-2-0.1-2.8,0.4-2.8,2.7C-289.2,393.2-289.2,394.3-289.2,395.6z"/>
</svg>
