<?xml version="1.0" encoding="utf-8"?>
<!-- Generator: Adobe Illustrator 17.1.0, SVG Export Plug-In . SVG Version: 6.00 Build 0)  -->
<!DOCTYPE svg PUBLIC "-//W3C//DTD SVG 1.1//EN" "http://www.w3.org/Graphics/SVG/1.1/DTD/svg11.dtd">
<svg version="1.1" id="Layer_1" xmlns="http://www.w3.org/2000/svg" xmlns:xlink="http://www.w3.org/1999/xlink" x="0px" y="0px"
	 width="24px" height="23.4px" viewBox="0 0 24 23.4" enable-background="new 0 0 24 23.4" xml:space="preserve">
<g>
	<path fill="#5281AE" d="M21.4,10.3h-3.8V4.2L12.9,0H6.3v10.3H2.6C1.2,10.3,0,11.5,0,13v4.7c0,1.4,1.2,2.6,2.6,2.6h1.6l-1.4,3.1
		h18.3l-1.4-3.1h1.6c1.4,0,2.6-1.2,2.6-2.6V13C24,11.5,22.8,10.3,21.4,10.3z M3,18.4c-0.5,0-0.9-0.4-0.9-0.9c0-0.5,0.4-0.9,0.9-0.9
		c0.5,0,0.9,0.4,0.9,0.9C3.9,18,3.5,18.4,3,18.4z M7.2,0.9h5.7v3.3h3.8v6.2H7.2V0.9z M4.7,22.1L8,14.5h8l3.3,7.6H4.7z"/>
	<polygon fill="#5281AE" points="14.1,16.5 9.9,16.5 9.6,17.4 14.4,17.4 	"/>
	<polygon fill="#5281AE" points="9.2,19.2 8.9,20 15.1,20 14.8,19.2 	"/>
</g>
<g>
</g>
<g>
</g>
<g>
</g>
<g>
</g>
<g>
</g>
<g>
</g>
</svg>
