<?xml version="1.0" encoding="utf-8"?>
<!-- Generator: Adobe Illustrator 17.1.0, SVG Export Plug-In . SVG Version: 6.00 Build 0)  -->
<!DOCTYPE svg PUBLIC "-//W3C//DTD SVG 1.1//EN" "http://www.w3.org/Graphics/SVG/1.1/DTD/svg11.dtd">
<svg version="1.1" id="Layer_1" xmlns="http://www.w3.org/2000/svg" xmlns:xlink="http://www.w3.org/1999/xlink" x="0px" y="0px"
	 width="52.4px" height="65.7px" viewBox="0 0 52.4 65.7" enable-background="new 0 0 52.4 65.7" xml:space="preserve">
<g>
	<rect x="23.1" y="27.1" fill="#404040" width="6" height="6.3"/>
	<rect x="13.2" y="27.1" fill="#404040" width="6" height="6.3"/>
	<rect x="33.1" y="27.1" fill="#404040" width="6" height="6.3"/>
	<path fill="#404040" d="M9.8,43.3c-0.4-0.3-0.9-0.6-1.4-0.8v0c-0.5-0.2-1-0.3-1.5-0.3c-0.1,0-0.1,0-0.1,0c-0.1,0-0.1,0-0.2,0
		c0,0,0,0,0,0c0,0,0,0,0,0c-0.1,0-0.1,0-0.2,0c0,0-0.1,0-0.1,0c-0.5,0-1,0.1-1.5,0.3v0C2,43.6,0,47,0,51.1c0,4.1,2,7.5,5.8,8.6v5.9
		h1.5v-5.9c0.9-0.3,1.7-0.7,2.5-1.2V43.3z"/>
	<rect x="23.1" y="38.9" fill="#404040" width="6" height="6.3"/>
	<rect x="13.2" y="38.9" fill="#404040" width="6" height="6.3"/>
	<rect x="33.1" y="38.9" fill="#404040" width="6" height="6.3"/>
	<rect x="23.1" y="15.3" fill="#404040" width="6" height="6.3"/>
	<rect x="13.2" y="15.3" fill="#404040" width="6" height="6.3"/>
	<rect x="33.1" y="15.3" fill="#404040" width="6" height="6.3"/>
	<rect x="13.2" y="50.7" fill="#404040" width="6" height="6.3"/>
	<rect x="33.1" y="50.7" fill="#404040" width="6" height="6.3"/>
	<path fill="#404040" d="M47.5,39c0.1-0.8,0.2-1.7,0.2-2.6c0-5.3-2.4-9.6-5.4-9.8v11.8v7.8v15.2H29.1V50.7h-6v10.6H9.8v4.4
		c5.8,0,26.6,0,32.5,0c1,0,1.6,0,1.6,0h0.5c4.4,0,7.9-6.2,7.9-13.9C52.4,46,50.4,41.1,47.5,39z"/>
	<polygon fill="#404040" points="42.3,7.3 26,0 9.8,7.3 9.8,10.6 42.3,10.6 	"/>
</g>
<g>
</g>
<g>
</g>
<g>
</g>
<g>
</g>
<g>
</g>
<g>
</g>
</svg>
