<?xml version="1.0" encoding="utf-8"?>
<!-- Generator: Adobe Illustrator 17.1.0, SVG Export Plug-In . SVG Version: 6.00 Build 0)  -->
<!DOCTYPE svg PUBLIC "-//W3C//DTD SVG 1.1//EN" "http://www.w3.org/Graphics/SVG/1.1/DTD/svg11.dtd">
<svg version="1.1" id="Layer_1" xmlns="http://www.w3.org/2000/svg" xmlns:xlink="http://www.w3.org/1999/xlink" x="0px" y="0px"
	 width="20.7px" height="36.8px" viewBox="0 0 20.7 36.8" enable-background="new 0 0 20.7 36.8" xml:space="preserve">
<g>
	<path fill="#FFFFFF" stroke="#FFFFFF" stroke-width="1.1934" stroke-miterlimit="10" d="M8.1,36.2V32c-2.9-0.1-5.8-0.9-7.4-1.9
		L2,25.1c1.8,1,4.4,1.9,7.2,1.9c2.5,0,4.2-1,4.2-2.7c0-1.7-1.4-2.7-4.6-3.8c-4.7-1.6-7.8-3.7-7.8-8c0-3.8,2.7-6.8,7.4-7.8V0.6h4.3
		v3.8c2.9,0.1,4.9,0.7,6.3,1.4l-1.3,4.9c-1.1-0.5-3.1-1.5-6.3-1.5c-2.8,0-3.7,1.2-3.7,2.4c0,1.4,1.5,2.4,5.2,3.7
		c5.2,1.8,7.3,4.2,7.3,8.2c0,3.9-2.7,7.2-7.8,8.1v4.4H8.1z"/>
</g>
<g>
</g>
<g>
</g>
<g>
</g>
<g>
</g>
<g>
</g>
<g>
</g>
</svg>
