<?xml version="1.0" encoding="utf-8"?>
<!-- Generator: Adobe Illustrator 17.1.0, SVG Export Plug-In . SVG Version: 6.00 Build 0)  -->
<!DOCTYPE svg PUBLIC "-//W3C//DTD SVG 1.1//EN" "http://www.w3.org/Graphics/SVG/1.1/DTD/svg11.dtd">
<svg version="1.1" id="Layer_1" xmlns="http://www.w3.org/2000/svg" xmlns:xlink="http://www.w3.org/1999/xlink" x="0px" y="0px"
	 width="26.4px" height="24.3px" viewBox="0 0 26.4 24.3" enable-background="new 0 0 26.4 24.3" xml:space="preserve">
<g>
	<g>
		<path fill="#5482AD" d="M10.2,18.7V6.9c0,0,1.9,0.9,3.4,2.6c1.8,2,3.3,4.7,2.9,9.2H10.2z"/>
		<g>
			<polygon fill="#5482AD" points="9,12.8 9,1.3 3.8,12.8 			"/>
			<polygon fill="#5482AD" points="3.4,13.8 1.2,18.7 9,18.7 9,13.8 			"/>
		</g>
	</g>
	<path fill="#5482AD" d="M12.9,24.3c2.9,0,3.5-4.4,3.5-4.4s-9.1,0-10,0c-0.8,0-1.4,1-1.4,1H0c0,0,0.5,3.4,3.3,3.4
		c0.9,0,1.3-0.4,1.5-0.8c0.2-0.4,0-0.9,0-0.9c1,0.2,1.8,1.8,3.2,1.8c0.9,0,1.3-0.4,1.5-0.8c0.2-0.4,0-0.9,0-0.9
		C10.6,22.7,11.5,24.3,12.9,24.3z"/>
</g>
<g>
	<path fill="#5482AD" d="M21.4,8.1v-3h-3V3h3V0h2v3h3v2.1h-3v3H21.4z"/>
</g>
<g>
</g>
<g>
</g>
<g>
</g>
<g>
</g>
<g>
</g>
<g>
</g>
</svg>
