<?xml version="1.0" encoding="utf-8"?>
<!-- Generator: Adobe Illustrator 18.1.1, SVG Export Plug-In . SVG Version: 6.00 Build 0)  -->
<svg version="1.1" id="Layer_1" xmlns="http://www.w3.org/2000/svg" xmlns:xlink="http://www.w3.org/1999/xlink" x="0px" y="0px"
	 viewBox="-192 375.8 226.7 42.2" enable-background="new -192 375.8 226.7 42.2" xml:space="preserve">
<g>
	<path d="M18,385.1c-3.6,0-4.5-1.4-2.7-4.7c0.5-0.9,0.4-1.8,0.3-2.7c-0.2-2.2,1.3-1.8,2.5-1.8c1.2,0,3-0.5,2.5,1.7
		c-0.4,1.9,1.1,3.2,1.1,4.9c0,2-0.5,2.9-2.5,2.5C18.8,385.1,18.4,385.2,18,385.1z M18.1,377c-1.1-0.2-1.7,0.3-1.6,1.5
		c0,1.1,0.3,1.7,1.5,1.6c1.1,0,1.7-0.3,1.6-1.5C19.6,377.5,19.4,376.8,18.1,377z M18.1,381.1c-1.2-0.2-1.5,0.4-1.6,1.6
		c0,1.2,0.5,1.5,1.6,1.6c1.2,0,1.5-0.5,1.5-1.6C19.7,381.4,19.2,380.9,18.1,381.1z"/>
	<path d="M-23.8,380.1c0-1.2,0-1.8,0-2.4c0-0.7-0.2-1.6,1-1.7c1.4,0,1,1,1.1,1.8c0,0.8,0,1.7,0,2.5c0,1.6,0.4,2.5,2.1,1.2
		c0.7-0.5,1.6-0.8,1.8,0.1c0.3,1.1,0.7,2.5-0.4,3.3c-0.5,0.4-1.4,0.2-1.4-0.8c0-0.7-0.4-1.2-1.1-1.1
		C-23.9,383.6-24.3,382-23.8,380.1z"/>
	<path d="M-132.9,380.7c0,0.8,0,1.7,0,2.5c-0.1,1.1-0.7,1.9-1.8,2c-1.1,0.1-2.4,0.3-3.4,0c-3.4-1.1-1.5-4.1-1.9-6.2
		c-0.3-1.5,0.4-2.7,2.2-2.8c0.8,0,1.5,0,2.3,0c1.8-0.1,2.7,0.8,2.7,2.6C-132.9,379.3-132.9,380-132.9,380.7
		C-132.9,380.7-132.9,380.7-132.9,380.7z M-133.8,380.6c-0.3-1.1,0.6-2.6-0.6-3.3c-1.1-0.7-2.5-0.4-3.8-0.1
		c-1.2,0.3-0.8,1.5-0.8,2.3c0,0.6,0,1.2,0,1.8c0,2.9,0.1,2.8,2.9,2.9C-133,384.4-134,382.2-133.8,380.6z"/>
	<path d="M-123,380.7c0,0.8,0,1.5,0,2.3c-0.1,1.3-0.8,2.1-2.1,2.2c-1,0-2,0-2.9,0c-1,0-1.9-0.6-1.9-1.6c-0.1-2-0.1-3.9,0-5.9
		c0.1-1,0.9-1.6,1.9-1.6c0.9,0,1.8,0,2.7,0c1.6,0,2.4,0.8,2.4,2.4C-123,379.2-123,379.9-123,380.7z M-129.2,380.6
		c0.3,1-0.8,2.7,0.9,3.5c2.5,1.1,4.3-0.1,4.3-2.9c0-0.9,0-1.8,0-2.7c0-1-0.5-1.4-1.5-1.5C-128.9,376.7-129.2,376.9-129.2,380.6z"/>
	<path d="M-164.3,385.2c-2,0-3-1.8-1.8-3.8c0.9-1.4,1.1-2.7,0-4.1c-0.4-0.5-0.4-1,0.3-1.2c0.6-0.2,1.3-0.1,1.3,0.7
		c0.1,0.9,0,1.8,0.1,2.7c0,0.7-0.1,1.4,0.9,1.6c2,0.4,1,2,1,3.1C-162.4,385.6-163.6,385-164.3,385.2z"/>
	<path d="M-0.5,378.4c-0.7-0.6-1-2.1-2.2-1.3c-1,0.7-0.5,2-0.4,3c0,1.3,1.2,0.8,1.9,1c1.1,0.3,2.7-0.9,3.1,1.1
		c0.4,2.4,0,2.9-2.5,2.9c-0.5,0-1.1-0.1-1.6,0c-1.6,0.2-2.1-0.5-2-2.1c0.1-1.8,0-3.6,0-5.4c0-0.6-0.2-1.4,0.6-1.5
		c1-0.2,2.2-0.4,3.1,0.2C0.3,376.8,0.1,377.6-0.5,378.4z M-1,384.2c0.8-0.2,2,0.4,2-1.1c0-1.5-1.3-1-2.1-1c-0.8,0-2-0.4-2,1.1
		C-3,384.7-1.8,384-1,384.2z"/>
	<path d="M-172.2,380.6c0,0.8,0,1.5,0,2.3c-0.1,1.4-0.8,2.3-2.2,2.3c-0.9,0-1.8,0.1-2.7,0c-3.4-0.6-1.8-3.4-2.1-5.3
		c-0.2-1.6-0.4-3.5,2.1-3.7c0.6-0.1,1.2,0,1.8,0c2.7,0,3.1,0.5,3.2,3.2C-172.2,379.7-172.2,380.1-172.2,380.6z M-178.3,380.5
		c0,0.7,0,1.4,0,2c0,1.1,0.4,1.6,1.6,1.7c3.2,0.3,3.5,0,3.6-3.1c0-0.4,0-0.8,0-1.1c0-2.9,0-2.8-2.8-3
		C-179.1,376.8-178.2,378.9-178.3,380.5z"/>
	<path d="M-109.4,380.1c0-1.1,0-1.8,0-2.5c0-0.6-0.2-1.5,0.9-1.5c1.2,0,1,0.9,1,1.6c0,1,0,2,0,2.9c0,1.6,0.8,1.9,2,1.1
		c0.7-0.5,1.5-1,1.9-0.2c0.5,1,0.6,2.4-0.2,3.4c-0.4,0.5-1.4,0.4-1.5-0.6c-0.1-0.8-0.5-1.3-1.3-1.2
		C-109.7,383.7-109.6,381.7-109.4,380.1z"/>
	<path d="M-51.2,383.1c0.1-0.7,0-1.3,0.5-2c0.9-1.1,0.8-2.4,0.1-3.5c-0.2-0.4-0.7-0.7-0.4-1.2c0.2-0.2,0.7-0.3,1-0.3
		c0.8,0,0.7,0.6,0.7,1.2c0,0.8,0,1.7,0,2.5c0,0.6,0,1.2,0.8,1.4c2.3,0.4,1.3,2.2,1.1,3.2c-0.2,1.5-1.7,0.7-2.7,0.8
		C-51.7,385.2-51,383.9-51.2,383.1z"/>
	<path d="M-152.5,383.1c-0.2,0.7,0.3,1.7-0.6,2c-1,0.3-2.3,0.6-3-0.2c-0.8-0.8-0.7-2.3-0.2-3.2c0.9-1.6,1.3-2.9,0-4.5
		c-0.3-0.4-0.2-0.9,0.3-1.1c0.6-0.2,1.3-0.2,1.3,0.7c0.1,0.8,0,1.5,0,2.3c0,1-0.2,2,1.3,2.1C-152.2,381.3-152.6,382.4-152.5,383.1z"
		/>
	<path d="M-32.6,376.4c3.7-0.8,3.8-0.7,4,2.7c0.1,1.4,1.2,2.4,1.1,4c-0.1,1.7-0.5,2.4-2.2,2.1c-0.9-0.1-1.8-0.1-3.2-0.2
		c1.2-1.3,3.6,0,3.4-2.6c-0.2-2.2-2.2-0.7-3-1.8c0.8-1,3.4,0.3,3-2.4C-29.8,376.1-31.8,377.7-32.6,376.4z"/>
	<path d="M-147.8,376.4c3.7-0.9,4-0.7,4,2.4c0,1.5,1.3,2.4,1.1,4c-0.2,1.6-0.4,2.6-2.3,2.3c-0.9-0.2-1.8,0.3-2.7-0.4
		c0.8-1.1,3.3,0.3,3.1-2.3c-0.2-2.3-2.4-0.7-3-2c0.8-0.9,3.1,0.5,3-2C-144.7,376.1-146.8,377.6-147.8,376.4z"/>
	<path d="M-113.2,383.2c-0.1,0.7,0.3,1.7-0.8,1.8c-0.9,0.2-2.1,0.5-2.8-0.2c-0.8-0.8-0.6-2.2-0.3-3c0.8-1.7,1.5-3.2,0-4.9
		c-0.3-0.3,0-0.9,0.6-0.9c0.6-0.1,1.1,0,1.2,0.7c0.1,0.7,0,1.3,0.1,2c0,1.1-0.4,2.3,1.4,2.5C-112.9,381.4-113.3,382.5-113.2,383.2z"
		/>
	<path d="M-8.1,376.1c-0.7,1.2-1.4,1-2.2,0.9c-1.2-0.1-1.8,0.4-1.8,1.7c0,1.3,0.7,1.5,1.7,1.5c0.8,0,1.9-0.5,2.2,0.5
		c0.4,1.3,0.3,2.7,0,4c-0.1,0.7-0.9,0.5-1.3,0.5c-1.1-0.1-2.2,0.3-3.5-0.3c0.8-1.1,1.8-0.6,2.7-0.6c1.2,0,1.4-0.6,1.4-1.6
		c0-1-0.2-1.6-1.4-1.6c-0.9,0-2.1,0.5-2.5-0.4c-0.6-1.1-0.2-2.5-0.2-3.8c0-0.5,0.4-0.8,0.9-0.8C-10.7,376.1-9.4,376.1-8.1,376.1z"/>
	<path d="M-41.1,376.8c0-1,2.7-1.2,3.5-0.3c0.8,1,0.3,2.6,0.2,3.9c-0.1,0.6-0.5,0.7-1,0.6c-1.2-0.1-2,0.1-2,1.7
		c0,1.7,1.2,1.4,2.2,1.5c0.3,0,0.6,0,0.7,0.7c-1.2,0.3-2.7,0.7-3.4-0.1c-0.9-1-0.4-2.7-0.3-4.1c0.1-0.5,0.7-0.6,1.1-0.5
		c1.3,0.1,1.9-0.3,1.9-1.7c0-1.6-1-1.4-2-1.4C-40.6,377-40.9,376.8-41.1,376.8z"/>
	<path d="M-93.7,384.4c-1.2,0.8-2.8,1.2-3.5,0.4c-0.9-1.1-0.3-2.7-0.2-4.1c0-0.4,0.5-0.5,0.9-0.5c1.3,0.1,2.2-0.1,2.1-1.8
		c-0.1-1.8-1.3-1.3-2.2-1.4c-0.3,0-0.6-0.1-0.7-0.7c1.2-0.4,2.8-0.8,3.6,0.2c0.8,1,0.3,2.6,0.2,3.9c0,0.5-0.6,0.7-1,0.6
		c-1.4-0.1-2.1,0.2-2,1.8c0.1,1.6,1.2,1.2,2.1,1.3C-94.3,384.2-94,384.3-93.7,384.4z"/>
	<path d="M7,378.9c-0.3-1-0.8-2.3,0.3-2.7c1.3-0.4,3.1-0.7,4.1,0.2c0.9,0.8,0.9,3,0,3.5c-2.1,1.1-1.7,2.7-1.8,4.4
		c0,0.3,0,0.6-0.4,0.7c-1-2.3-0.7-3.9,0.9-5.3c0.7-0.6,0.6-1.3,0.5-2.1c-0.1-0.7-0.8-0.6-1.3-0.6c-0.7,0-1.6-0.2-1.6,1
		C7.7,378.4,7.6,378.8,7,378.9z"/>
	<path d="M-79.8,381c-0.4,0.7,0.8,2.5-0.9,2.6c-1.8,0.1-0.8-1.7-1-2.7c-0.2-0.6,0-1.3,0-2c0-0.6,0-1.2,0.9-1.3c0.8,0,1,0.5,1,1.2
		C-79.8,379.4-79.8,380.1-79.8,381z"/>
	<path d="M-189.3,383.7c0.2,1.2-0.4,1.5-1.6,1.5c-1,0-1.5-0.3-1.5-1.4c0-1.1,0.2-1.7,1.5-1.7C-189.7,382.1-189.1,382.4-189.3,383.7z
		"/>
	<path d="M-190.7,379.1c-1.1,0.1-1.6-0.3-1.6-1.5c0-1,0.2-1.5,1.4-1.5c1,0,1.8,0,1.7,1.4C-189.3,378.5-189.5,379.2-190.7,379.1z"/>
	<path d="M34.3,383.7c0.2,1.2-0.4,1.5-1.6,1.5c-1,0-1.5-0.3-1.5-1.4c0-1.1,0.2-1.7,1.5-1.7C33.9,382.1,34.5,382.4,34.3,383.7z"/>
	<path d="M32.9,379.1c-1.1,0.1-1.6-0.3-1.6-1.5c0-1,0.2-1.5,1.4-1.5c1,0,1.8,0,1.7,1.4C34.3,378.5,34.1,379.2,32.9,379.1z"/>
	<path d="M-74.6,383.6c0.1,1-0.2,1.6-1.3,1.6c-1.1,0-1.7-0.3-1.6-1.5c0-1.2,0.4-1.6,1.6-1.6C-74.9,382.1-74.5,382.6-74.6,383.6z"/>
	<path d="M-76.2,376.1c1-0.1,1.6,0.1,1.6,1.3c0,1-0.1,1.8-1.4,1.8c-1.2,0-1.6-0.4-1.6-1.6C-77.6,376.5-77.3,375.9-76.2,376.1z"/>
	<polyline fill="none" stroke="#ECAC00" stroke-width="1.2023" stroke-miterlimit="10" points="-181.3,391.5 -181.3,398.2 
		-89.8,398.2 -89.8,391.5 	"/>
	<polyline fill="none" stroke="#ECAC00" stroke-width="1.2023" stroke-miterlimit="10" points="-62.3,391.5 -62.3,398.2 22.3,398.2 
		22.3,391.5 	"/>
	<path d="M-56.5,380.6c0,0.8,0,1.5,0,2.3c-0.1,1.3-0.8,2.1-2.1,2.2c-1,0-2,0-2.9,0c-1,0-1.9-0.6-1.9-1.6c-0.1-2-0.1-3.9,0-5.9
		c0.1-1,0.9-1.6,1.9-1.6c0.9,0,1.8,0,2.7,0c1.6,0,2.4,0.8,2.4,2.4C-56.5,379.1-56.5,379.9-56.5,380.6z M-62.7,380.6
		c0.3,1-0.8,2.7,0.9,3.5c2.5,1.1,4.3-0.1,4.3-2.9c0-0.9,0-1.8,0-2.7c0-1-0.5-1.4-1.5-1.5C-62.4,376.6-62.7,376.9-62.7,380.6z"/>
	<g>
		<path d="M-177.8,415.7V408h3.3c0.8,0,1.4,0.1,1.8,0.2c0.4,0.1,0.7,0.4,0.9,0.7s0.3,0.8,0.3,1.2c0,0.6-0.2,1.1-0.5,1.4
			c-0.3,0.4-0.9,0.6-1.5,0.7c0.3,0.2,0.6,0.4,0.8,0.7s0.5,0.7,0.9,1.3l0.9,1.5h-1.9l-1.1-1.7c-0.4-0.6-0.7-1-0.8-1.1
			c-0.1-0.2-0.3-0.3-0.5-0.3c-0.2-0.1-0.4-0.1-0.8-0.1h-0.3v3.2H-177.8z M-176.3,411.2h1.2c0.8,0,1.2,0,1.4-0.1
			c0.2-0.1,0.3-0.2,0.4-0.3c0.1-0.2,0.2-0.3,0.2-0.6c0-0.3-0.1-0.5-0.2-0.6c-0.1-0.2-0.3-0.3-0.6-0.3c-0.1,0-0.5,0-1.1,0h-1.2V411.2
			z"/>
		<path d="M-170.7,412.8c0-0.5,0.1-1,0.4-1.4s0.6-0.8,1-1.1c0.4-0.2,0.9-0.4,1.5-0.4c0.9,0,1.5,0.3,2.1,0.8c0.5,0.6,0.8,1.2,0.8,2.1
			c0,0.8-0.3,1.6-0.8,2.1c-0.5,0.6-1.2,0.8-2.1,0.8c-0.5,0-1-0.1-1.5-0.3c-0.5-0.2-0.8-0.6-1.1-1
			C-170.5,414-170.7,413.5-170.7,412.8z M-169.1,412.9c0,0.6,0.1,1,0.4,1.3c0.3,0.3,0.6,0.4,1,0.4c0.4,0,0.7-0.1,1-0.4
			c0.3-0.3,0.4-0.7,0.4-1.3c0-0.5-0.1-1-0.4-1.3c-0.3-0.3-0.6-0.4-1-0.4c-0.4,0-0.7,0.1-1,0.4C-169,411.9-169.1,412.4-169.1,412.9z"
			/>
		<path d="M-160.3,415.7v-0.8c-0.2,0.3-0.5,0.5-0.8,0.7c-0.3,0.2-0.7,0.3-1.1,0.3c-0.4,0-0.7-0.1-1-0.2c-0.3-0.2-0.5-0.4-0.7-0.7
			c-0.1-0.3-0.2-0.7-0.2-1.2v-3.6h1.5v2.6c0,0.8,0,1.3,0.1,1.5c0.1,0.2,0.2,0.3,0.3,0.4c0.1,0.1,0.3,0.2,0.5,0.2
			c0.3,0,0.5-0.1,0.7-0.2c0.2-0.1,0.3-0.3,0.4-0.5c0.1-0.2,0.1-0.7,0.1-1.5v-2.4h1.5v5.6H-160.3z"/>
		<path d="M-155,410.1v1.2h-1v2.3c0,0.5,0,0.7,0,0.8c0,0.1,0.1,0.1,0.1,0.2c0.1,0,0.2,0.1,0.3,0.1c0.1,0,0.3,0,0.6-0.1l0.1,1.2
			c-0.3,0.1-0.7,0.2-1.2,0.2c-0.3,0-0.5,0-0.7-0.1s-0.4-0.2-0.5-0.3c-0.1-0.1-0.2-0.3-0.2-0.6c0-0.2,0-0.5,0-1v-2.4h-0.7v-1.2h0.7
			V409l1.5-0.9v2H-155z"/>
		<path d="M-154.3,409.3V408h1.5v1.4H-154.3z M-154.3,415.7v-5.6h1.5v5.6H-154.3z"/>
		<path d="M-146.4,415.7h-1.5v-2.9c0-0.6,0-1-0.1-1.2c-0.1-0.2-0.2-0.3-0.3-0.4s-0.3-0.1-0.5-0.1c-0.3,0-0.5,0.1-0.7,0.2
			c-0.2,0.1-0.3,0.3-0.4,0.6c-0.1,0.2-0.1,0.7-0.1,1.3v2.5h-1.5v-5.6h1.4v0.8c0.5-0.6,1.1-1,1.9-1c0.3,0,0.6,0.1,0.9,0.2
			s0.5,0.3,0.6,0.5c0.1,0.2,0.2,0.4,0.3,0.6c0.1,0.2,0.1,0.6,0.1,1V415.7z"/>
		<path d="M-145.3,416.1l1.7,0.2c0,0.2,0.1,0.3,0.2,0.4c0.1,0.1,0.4,0.2,0.7,0.2c0.4,0,0.7-0.1,0.9-0.2c0.1-0.1,0.2-0.2,0.3-0.4
			c0-0.1,0.1-0.4,0.1-0.7v-0.8c-0.4,0.6-1,0.9-1.7,0.9c-0.8,0-1.4-0.3-1.8-1c-0.3-0.5-0.5-1.1-0.5-1.9c0-0.9,0.2-1.7,0.7-2.2
			c0.5-0.5,1-0.7,1.7-0.7c0.7,0,1.3,0.3,1.7,0.9v-0.8h1.4v5c0,0.7-0.1,1.2-0.2,1.5s-0.3,0.6-0.5,0.8c-0.2,0.2-0.5,0.3-0.8,0.4
			c-0.3,0.1-0.7,0.2-1.3,0.2c-1,0-1.6-0.2-2-0.5c-0.4-0.3-0.6-0.7-0.6-1.2C-145.3,416.2-145.3,416.2-145.3,416.1z M-144,412.8
			c0,0.6,0.1,1,0.3,1.3c0.2,0.3,0.5,0.4,0.9,0.4c0.4,0,0.7-0.1,0.9-0.4c0.2-0.3,0.4-0.7,0.4-1.3c0-0.6-0.1-1-0.4-1.3
			c-0.2-0.3-0.5-0.4-0.9-0.4c-0.4,0-0.6,0.1-0.9,0.4C-143.9,411.8-144,412.2-144,412.8z"/>
		<path d="M-136.1,415.7V408h1.5l3.2,5.2V408h1.5v7.8h-1.6l-3.1-5.1v5.1H-136.1z"/>
		<path d="M-124.8,415.7v-0.8c-0.2,0.3-0.5,0.5-0.8,0.7c-0.3,0.2-0.7,0.3-1.1,0.3c-0.4,0-0.7-0.1-1-0.2c-0.3-0.2-0.5-0.4-0.7-0.7
			s-0.2-0.7-0.2-1.2v-3.6h1.5v2.6c0,0.8,0,1.3,0.1,1.5c0.1,0.2,0.2,0.3,0.3,0.4c0.1,0.1,0.3,0.2,0.6,0.2c0.3,0,0.5-0.1,0.7-0.2
			c0.2-0.1,0.3-0.3,0.4-0.5c0.1-0.2,0.1-0.7,0.1-1.5v-2.4h1.5v5.6H-124.8z"/>
		<path d="M-122.3,410.1h1.4v0.8c0.5-0.6,1.1-0.9,1.8-0.9c0.4,0,0.7,0.1,0.9,0.2s0.5,0.4,0.7,0.7c0.2-0.3,0.5-0.5,0.8-0.7
			c0.3-0.1,0.6-0.2,0.9-0.2c0.4,0,0.8,0.1,1,0.3c0.3,0.2,0.5,0.4,0.6,0.7c0.1,0.2,0.2,0.6,0.2,1.2v3.6h-1.5v-3.2
			c0-0.6-0.1-0.9-0.2-1.1c-0.1-0.2-0.3-0.3-0.6-0.3c-0.2,0-0.4,0.1-0.6,0.2s-0.3,0.3-0.4,0.6s-0.1,0.6-0.1,1.2v2.7h-1.5v-3.1
			c0-0.5,0-0.9-0.1-1.1c-0.1-0.2-0.1-0.3-0.2-0.4c-0.1-0.1-0.3-0.1-0.5-0.1c-0.2,0-0.4,0.1-0.6,0.2c-0.2,0.1-0.3,0.3-0.4,0.5
			c-0.1,0.2-0.1,0.6-0.1,1.2v2.7h-1.5V410.1z"/>
		<path d="M-112.9,415.7V408h1.5v2.8c0.5-0.5,1-0.8,1.6-0.8c0.7,0,1.2,0.2,1.7,0.7c0.4,0.5,0.7,1.2,0.7,2.1c0,1-0.2,1.7-0.7,2.2
			s-1,0.8-1.7,0.8c-0.3,0-0.6-0.1-0.9-0.2c-0.3-0.2-0.6-0.4-0.8-0.7v0.8H-112.9z M-111.4,412.8c0,0.6,0.1,1,0.3,1.3
			c0.3,0.4,0.6,0.6,1,0.6c0.3,0,0.6-0.1,0.8-0.4c0.2-0.3,0.3-0.7,0.3-1.3c0-0.6-0.1-1.1-0.3-1.4c-0.2-0.3-0.5-0.4-0.9-0.4
			c-0.4,0-0.7,0.1-0.9,0.4C-111.3,411.8-111.4,412.2-111.4,412.8z"/>
		<path d="M-103.2,413.9l1.5,0.2c-0.2,0.5-0.5,1-0.9,1.2s-0.9,0.4-1.5,0.4c-1,0-1.7-0.3-2.2-1c-0.4-0.5-0.6-1.2-0.6-1.9
			c0-0.9,0.2-1.7,0.7-2.2c0.5-0.5,1.1-0.8,1.8-0.8c0.8,0,1.5,0.3,2,0.8c0.5,0.6,0.7,1.4,0.7,2.5h-3.7c0,0.4,0.1,0.8,0.4,1
			c0.2,0.2,0.5,0.4,0.9,0.4c0.2,0,0.4-0.1,0.6-0.2C-103.4,414.4-103.3,414.2-103.2,413.9z M-103.2,412.4c0-0.4-0.1-0.8-0.3-1
			c-0.2-0.2-0.5-0.3-0.8-0.3c-0.3,0-0.6,0.1-0.8,0.4s-0.3,0.6-0.3,1H-103.2z"/>
		<path d="M-99.3,415.7h-1.5v-5.6h1.4v0.8c0.2-0.4,0.4-0.6,0.6-0.7c0.2-0.1,0.4-0.2,0.6-0.2c0.3,0,0.7,0.1,1,0.3l-0.5,1.3
			c-0.3-0.2-0.5-0.2-0.7-0.2c-0.2,0-0.4,0.1-0.5,0.2s-0.3,0.3-0.3,0.6s-0.1,0.9-0.1,1.9V415.7z"/>
	</g>
	<g>
		<path d="M-55.7,415.7h-1.7l-0.7-1.8h-3.1l-0.6,1.8h-1.7l3-7.8h1.7L-55.7,415.7z M-58.6,412.7l-1.1-2.9l-1,2.9H-58.6z"/>
		<path d="M-50.2,411.8l-1.5,0.3c0-0.3-0.2-0.5-0.3-0.7c-0.2-0.1-0.4-0.2-0.7-0.2c-0.4,0-0.7,0.1-0.9,0.4c-0.2,0.3-0.3,0.7-0.3,1.3
			c0,0.7,0.1,1.1,0.3,1.4s0.5,0.4,0.9,0.4c0.3,0,0.5-0.1,0.7-0.2s0.3-0.4,0.4-0.8l1.5,0.2c-0.2,0.7-0.4,1.2-0.9,1.5
			c-0.4,0.3-1,0.5-1.7,0.5c-0.8,0-1.5-0.3-2-0.8c-0.5-0.5-0.7-1.2-0.7-2.2c0-0.9,0.2-1.7,0.7-2.2s1.2-0.8,2-0.8
			c0.7,0,1.2,0.1,1.6,0.4C-50.7,410.7-50.4,411.2-50.2,411.8z"/>
		<path d="M-44.5,411.8l-1.5,0.3c0-0.3-0.2-0.5-0.3-0.7c-0.2-0.1-0.4-0.2-0.7-0.2c-0.4,0-0.7,0.1-0.9,0.4c-0.2,0.3-0.3,0.7-0.3,1.3
			c0,0.7,0.1,1.1,0.3,1.4s0.5,0.4,0.9,0.4c0.3,0,0.5-0.1,0.7-0.2s0.3-0.4,0.4-0.8l1.5,0.2c-0.2,0.7-0.4,1.2-0.9,1.5
			c-0.4,0.3-1,0.5-1.7,0.5c-0.8,0-1.5-0.3-2-0.8c-0.5-0.5-0.7-1.2-0.7-2.2c0-0.9,0.2-1.7,0.7-2.2s1.2-0.8,2-0.8
			c0.7,0,1.2,0.1,1.6,0.4C-44.9,410.7-44.7,411.2-44.5,411.8z"/>
		<path d="M-44,412.8c0-0.5,0.1-1,0.4-1.4s0.6-0.8,1-1.1c0.4-0.2,0.9-0.4,1.5-0.4c0.8,0,1.5,0.3,2.1,0.8c0.5,0.6,0.8,1.2,0.8,2.1
			c0,0.8-0.3,1.6-0.8,2.1c-0.5,0.6-1.2,0.8-2.1,0.8c-0.5,0-1-0.1-1.5-0.3c-0.5-0.2-0.8-0.6-1.1-1C-43.8,414-44,413.5-44,412.8z
			 M-42.4,412.9c0,0.6,0.1,1,0.4,1.3c0.3,0.3,0.6,0.4,1,0.4c0.4,0,0.7-0.1,1-0.4c0.3-0.3,0.4-0.7,0.4-1.3c0-0.5-0.1-1-0.4-1.3
			c-0.3-0.3-0.6-0.4-1-0.4c-0.4,0-0.7,0.1-1,0.4C-42.3,411.9-42.4,412.4-42.4,412.9z"/>
		<path d="M-33.6,415.7v-0.8c-0.2,0.3-0.5,0.5-0.8,0.7c-0.3,0.2-0.7,0.3-1.1,0.3c-0.4,0-0.7-0.1-1-0.2c-0.3-0.2-0.5-0.4-0.7-0.7
			s-0.2-0.7-0.2-1.2v-3.6h1.5v2.6c0,0.8,0,1.3,0.1,1.5c0.1,0.2,0.2,0.3,0.3,0.4c0.1,0.1,0.3,0.2,0.6,0.2c0.3,0,0.5-0.1,0.7-0.2
			c0.2-0.1,0.3-0.3,0.4-0.5c0.1-0.2,0.1-0.7,0.1-1.5v-2.4h1.5v5.6H-33.6z"/>
		<path d="M-25.8,415.7h-1.5v-2.9c0-0.6,0-1-0.1-1.2c-0.1-0.2-0.2-0.3-0.3-0.4c-0.1-0.1-0.3-0.1-0.5-0.1c-0.3,0-0.5,0.1-0.7,0.2
			c-0.2,0.1-0.3,0.3-0.4,0.6c-0.1,0.2-0.1,0.7-0.1,1.3v2.5h-1.5v-5.6h1.4v0.8c0.5-0.6,1.1-1,1.9-1c0.3,0,0.6,0.1,0.9,0.2
			s0.5,0.3,0.6,0.5c0.1,0.2,0.2,0.4,0.3,0.6c0.1,0.2,0.1,0.6,0.1,1V415.7z"/>
		<path d="M-22,410.1v1.2h-1v2.3c0,0.5,0,0.7,0,0.8c0,0.1,0.1,0.1,0.1,0.2c0.1,0,0.2,0.1,0.3,0.1c0.1,0,0.3,0,0.6-0.1l0.1,1.2
			c-0.3,0.1-0.7,0.2-1.2,0.2c-0.3,0-0.5,0-0.7-0.1s-0.4-0.2-0.5-0.3c-0.1-0.1-0.2-0.3-0.2-0.6c0-0.2,0-0.5,0-1v-2.4h-0.7v-1.2h0.7
			V409l1.5-0.9v2H-22z"/>
		<path d="M-18.5,415.7V408h1.5l3.2,5.2V408h1.5v7.8h-1.6l-3.1-5.1v5.1H-18.5z"/>
		<path d="M-7.3,415.7v-0.8c-0.2,0.3-0.5,0.5-0.8,0.7c-0.3,0.2-0.7,0.3-1.1,0.3c-0.4,0-0.7-0.1-1-0.2c-0.3-0.2-0.5-0.4-0.7-0.7
			s-0.2-0.7-0.2-1.2v-3.6h1.5v2.6c0,0.8,0,1.3,0.1,1.5c0.1,0.2,0.2,0.3,0.3,0.4c0.1,0.1,0.3,0.2,0.6,0.2c0.3,0,0.5-0.1,0.7-0.2
			c0.2-0.1,0.3-0.3,0.4-0.5c0.1-0.2,0.1-0.7,0.1-1.5v-2.4h1.5v5.6H-7.3z"/>
		<path d="M-4.7,410.1h1.4v0.8c0.5-0.6,1.1-0.9,1.8-0.9c0.4,0,0.7,0.1,0.9,0.2s0.5,0.4,0.7,0.7c0.2-0.3,0.5-0.5,0.8-0.7
			c0.3-0.1,0.6-0.2,0.9-0.2c0.4,0,0.8,0.1,1,0.3c0.3,0.2,0.5,0.4,0.6,0.7c0.1,0.2,0.2,0.6,0.2,1.2v3.6H2.1v-3.2
			c0-0.6-0.1-0.9-0.2-1.1c-0.1-0.2-0.3-0.3-0.6-0.3c-0.2,0-0.4,0.1-0.6,0.2s-0.3,0.3-0.4,0.6s-0.1,0.6-0.1,1.2v2.7h-1.5v-3.1
			c0-0.5,0-0.9-0.1-1.1c-0.1-0.2-0.1-0.3-0.2-0.4c-0.1-0.1-0.3-0.1-0.5-0.1c-0.2,0-0.4,0.1-0.6,0.2c-0.2,0.1-0.3,0.3-0.4,0.5
			c-0.1,0.2-0.1,0.6-0.1,1.2v2.7h-1.5V410.1z"/>
		<path d="M4.7,415.7V408h1.5v2.8c0.5-0.5,1-0.8,1.6-0.8c0.7,0,1.2,0.2,1.7,0.7c0.4,0.5,0.7,1.2,0.7,2.1c0,1-0.2,1.7-0.7,2.2
			s-1,0.8-1.7,0.8c-0.3,0-0.6-0.1-0.9-0.2c-0.3-0.2-0.6-0.4-0.8-0.7v0.8H4.7z M6.2,412.8c0,0.6,0.1,1,0.3,1.3c0.3,0.4,0.6,0.6,1,0.6
			c0.3,0,0.6-0.1,0.8-0.4c0.2-0.3,0.3-0.7,0.3-1.3c0-0.6-0.1-1.1-0.3-1.4c-0.2-0.3-0.5-0.4-0.9-0.4c-0.4,0-0.7,0.1-0.9,0.4
			C6.3,411.8,6.2,412.2,6.2,412.8z"/>
		<path d="M14.4,413.9l1.5,0.2c-0.2,0.5-0.5,1-0.9,1.2c-0.4,0.3-0.9,0.4-1.5,0.4c-1,0-1.7-0.3-2.2-1c-0.4-0.5-0.6-1.2-0.6-1.9
			c0-0.9,0.2-1.7,0.7-2.2c0.5-0.5,1.1-0.8,1.8-0.8c0.8,0,1.5,0.3,2,0.8c0.5,0.6,0.7,1.4,0.7,2.5h-3.7c0,0.4,0.1,0.8,0.4,1
			s0.5,0.4,0.9,0.4c0.2,0,0.4-0.1,0.6-0.2S14.3,414.2,14.4,413.9z M14.4,412.4c0-0.4-0.1-0.8-0.3-1c-0.2-0.2-0.5-0.3-0.8-0.3
			c-0.3,0-0.6,0.1-0.8,0.4c-0.2,0.2-0.3,0.6-0.3,1H14.4z"/>
		<path d="M18.3,415.7h-1.5v-5.6h1.4v0.8c0.2-0.4,0.4-0.6,0.6-0.7c0.2-0.1,0.4-0.2,0.6-0.2c0.3,0,0.7,0.1,1,0.3l-0.5,1.3
			c-0.3-0.2-0.5-0.2-0.7-0.2c-0.2,0-0.4,0.1-0.5,0.2s-0.3,0.3-0.3,0.6s-0.1,0.9-0.1,1.9V415.7z"/>
	</g>
</g>
</svg>
