<?xml version="1.0" encoding="utf-8"?>
<!-- Generator: Adobe Illustrator 17.1.0, SVG Export Plug-In . SVG Version: 6.00 Build 0)  -->
<!DOCTYPE svg PUBLIC "-//W3C//DTD SVG 1.1//EN" "http://www.w3.org/Graphics/SVG/1.1/DTD/svg11.dtd">
<svg version="1.1" id="LM_logo" xmlns="http://www.w3.org/2000/svg" xmlns:xlink="http://www.w3.org/1999/xlink" x="0px" y="0px"
	 width="359.6px" height="91.3px" viewBox="24.6 19 359.6 91.3" enable-background="new 24.6 19 359.6 91.3" xml:space="preserve">
<g>
	<path fill="#616265" d="M105.5,69.6c0,2.3,1,3,4.4,3s5-1,7.2-5.6h0.8l-0.8,7.2H95.8v-0.8c3.2-0.8,3.5-1.5,3.5-4.5V51.1
		c0-2.5-0.6-3.2-3.5-3.9v-0.8H109v0.8c-2.8,0.7-3.5,1.3-3.5,3.7V69.6z"/>
	<path fill="#616265" d="M126.8,70.3c0,1.8,0.9,2.8,2.9,3v0.8h-11.3v-0.8c2.4-0.5,3-1.1,3-3.4v-9.5c0-2.2-0.6-2.8-3.2-3.3v-0.8
		l7.8-0.7h0.8V70.3z M124.1,44.5c1.7,0,3.1,1.4,3.1,3.1c0,1.7-1.4,3.1-3.1,3.1s-3.1-1.4-3.1-3.1C121,45.8,122.4,44.5,124.1,44.5"/>
	<path fill="#616265" d="M138.5,60.1c1.8-1.7,2.8-2.1,4.2-2.1c3.2,0,5.3,3,5.3,7.4c0,5.8-2.7,8.2-6.6,8.2c-2.1,0-2.8-0.9-2.8-3
		L138.5,60.1L138.5,60.1z M138.5,44.5h-0.8l-7.3,0.5v0.8c1.7,0.3,2.7,1.1,2.7,2.7v25.7c2.7,0.5,5.4,0.7,8.7,0.7
		c8.7,0,12.1-4.6,12.1-10.1c0-5.2-3.7-9.3-8.5-9.3c-2.6,0-4.7,1-6.9,3.3V44.5z"/>
	<path fill="#616265" d="M161.8,62.5c0.1-3.4,1.6-5.7,3.8-5.7s3.8,2.4,4,5.7H161.8z M175.3,63.6c-0.7-4.9-4.3-8.1-9.4-8.1
		c-5.6,0-10,4.2-10,9.8c0,5.5,4.2,9.5,9.8,9.5c4.3,0,8-2.4,9.6-6.2h-0.8c-1.7,2.6-3.8,3.9-6.4,3.9c-3.3,0-6.6-3-6.4-8.9
		C161.7,63.6,175.3,63.6,175.3,63.6z"/>
	<path fill="#616265" d="M192.5,62.5c-1.6-1.5-2.8-2.3-4-2.3c-1.6,0-2.6,0.7-4,2.6V70c0,2.1,0.4,2.8,3,3.3v0.8h-11.4v-0.8
		c2.4-0.6,3-1.3,3-3.3v-9.5c0-2.3-1-3.3-3.3-3.5v-0.8l7.8-0.7h0.8v5.7h0.1c1.8-3.9,3.7-5.7,5.9-5.7c1.2,0,2.3,0.5,3.2,1.5
		L192.5,62.5z"/>
	<path fill="#616265" d="M222.7,56.3v0.8c2.3,0.5,2.8,1.9,1.2,5.7l-2.5,5.7l-3.8-7.8c-1.1-2.3-1.1-3.3,0.9-3.6v-0.8h-10.4h-0.3h-5.2
		v-6.9h-0.9c-2.5,3.2-5.5,6.1-7.7,7.5v0.9h3.2v11.5c0,4.1,2.7,5.7,6.1,5.7c2.7,0,4.4-0.9,5.7-3.2l-0.6-0.5c-0.9,1-1.7,1.4-2.6,1.4
		c-2.5,0-3.3-1.7-3.3-4.6V57.7h4.8c2.6,0,3.4,0.9,4.5,3.4l6.5,13.8c-2.2,5.9-4.1,8.3-7.4,8.3c-0.7,0-1.3,0-2.4-0.4l-1.1,5.4
		c0.7,0.1,1,0.1,1.5,0.1c3.7,0,5.7-1.6,7.6-5.9l9-20.6c1.5-3.3,2-4,4.3-4.6v-0.8h-7.1V56.3z"/>
	<path fill="#616265" d="M274.6,69.2c0.3,2.4,1.5,3.8,4.2,4.3v0.8h-13.7v-0.8c3-0.8,3.6-2.5,3-6.1l-2.3-15.9h-0.1l-9,22.8h-1
		l-8.9-22.8h-0.1l-2.4,16.3c-0.5,3.2,0.1,5.4,3.3,5.6v0.8h-10.1v-0.8c3-0.1,4.3-1.8,4.9-6.1l2.8-18.1c-1.1-1.1-2.6-1.9-4-1.9v-0.8
		h10l7.3,18.3l7.4-18.3h9.4v0.8c-2.8,0.5-3.5,2-3.1,4.5L274.6,69.2z"/>
	<path fill="#616265" d="M281,60.3c0-2-0.7-2.7-2.8-3.1v-0.8l7.4-0.7h0.8v13.2c0,2.1,1.4,3.1,3.3,3.1c1.8,0,2.9-0.8,4.5-3.2v-8.9
		c0-1.5-1-2.3-2.8-2.7v-0.8l7.4-0.7h0.8V70c0,2.4,0.5,2.9,2.9,3.6v0.8l-8.2,0.7v-4.4H294c-2,3-4.2,4.4-7.1,4.4c-3.7,0-5.9-2-5.9-5.5
		V60.3z"/>
	<path fill="#616265" d="M306.5,57.9h-3.2V57c2.2-1.4,5.2-4.2,7.7-7.5h0.9v6.9h5.9v1.4h-5.9v10.3c0,2.9,0.8,4.6,3.3,4.6
		c0.9,0,1.8-0.4,2.6-1.4l0.6,0.5c-1.3,2.2-3.1,3.2-5.7,3.2c-3.4,0-6.1-1.6-6.1-5.7L306.5,57.9L306.5,57.9z"/>
	<path fill="#616265" d="M321.2,60.3c0-2-0.7-2.7-2.8-3.1v-0.8l7.4-0.7h0.8v13.2c0,2.1,1.4,3.1,3.3,3.1c1.8,0,2.9-0.8,4.5-3.2v-8.9
		c0-1.5-0.9-2.3-2.8-2.7v-0.8l7.4-0.7h0.8V70c0,2.4,0.5,2.9,2.8,3.6v0.8l-8.2,0.7v-4.4h-0.1c-2,3-4.2,4.4-7.1,4.4
		c-3.7,0-5.9-2-5.9-5.5L321.2,60.3L321.2,60.3z"/>
	<path fill="#616265" d="M354.8,71.2c-1.2,1.2-2.3,1.9-3.4,1.9c-1.5,0-2.5-1.3-2.5-3.2c0-2.4,1.4-3.5,5.8-5.4v6.7H354.8z
		 M360.2,62.4c0-4.9-4-6.7-7.9-6.7c-4.2,0-7.1,2.2-8,6.1h0.7c1.1-2,2.9-3,5.4-3c3.2,0,4.5,1.5,4.5,4.7c-4.4,1.6-11.5,2-11.5,6.8
		c0,2.6,2.4,4.7,5.4,4.7c2.2,0,3.8-0.5,5.6-2.1l0.4-0.4c0.9,1.8,2.1,2.5,4.3,2.5c2.6,0,4.2-1.2,4.4-3.5h-0.8
		c-0.2,1.1-0.7,1.7-1.4,1.7c-0.8,0-1.1-0.7-1.1-2.4V62.4z"/>
	<path fill="#616265" d="M367.2,49.5c0-2.5-0.8-3.4-3.4-3.6v-0.8l7.9-0.5h0.8V70c0,2.4,0.5,2.9,3.2,3.6v0.8h-11.9v-0.8
		c2.6-0.4,3.4-1.3,3.4-3.6V49.5z"/>
	<path fill="#002663" d="M89.4,55.3c-0.2-0.3-0.7-0.1-0.7-0.1l-8.3,3.1c-0.6-1.6-1.4-3.1-2.2-4.4l2.7-7.4c0,0,0.3-0.7,0-0.9
		s-0.8,0.3-0.8,0.3l-4.9,4c-1.9-2-4.2-3.7-6.7-4.9c-1-0.4-2-0.8-3-1.1L64,38.1c0,0-0.1-0.6-0.5-0.6S63,38.1,63,38.1l-1,5.2
		c-1.1-0.1-2.2-0.2-3.3-0.2c-3.7,0-6.9,0.7-9.8,2c-1.2,0.5-2.4,1.2-3.4,2c-0.2,0.1-0.3,0.3-0.5,0.4c-1-2.6-1.8-4.7-2-5.4
		c0.6-0.5,1.7-2.4,2-3.6c0.4-1.8,0.3-2.6-0.1-3.9c-0.3-1-0.9-1.9-0.9-2.5c0-0.5,0.3-0.8,0.5-1c-0.1-0.6-0.5-0.9-1-1
		s-0.8,0.1-1.2,0.1C42.2,30,42,30,42.1,29.4c0.2-1,2.2-1.5,3.7-2.1c2-0.8,3.1-2.2,3.2-4.5c0-1.7-0.9-2.9-2.1-3.5
		c-0.2,0.7-1.2,1.6-1.9,2s-1.6,0.5-2.3,0.4c0.1-1.2-0.4-2.3-1.3-2.7c-0.3,0.5-1.4,1.3-3,1.2c-1.6,0-1.7-0.4-4-0.4
		c-3.3,0-6,2-6.3,4.9c-0.2,1.9,0.5,3.5,1.1,4.3c-0.4,0.3-1.4,1.2-1.5,1.5c-0.2-0.3-0.9-0.6-1.7-0.1c0.2,0.4,0.2,0.9,0.1,1.4
		s-1.3,2.8-1.5,4.7c-0.2,3.2,1.6,5.3,3.1,5.9c-0.3,0.5-0.4,1.1-0.2,1.5c0.2,0.3,0.5,0.6,1.1,0.6c-0.4,0.4-0.5,1-0.3,1.6
		c0.3,0.7,1.1,1.7,1.7,1.7c0,0.6,0.2,1.9,0.4,2.5c-0.2,0.4-0.5,0.8-0.4,1.6c0,0.8,0.6,1.5,1.3,1.7c0.2,0.4,0.3,0.9,0.5,1.1
		c0.2,0.3,0.4,0.6,1,0.9c0.5,0.3,1.1,0.6,1.8,0.6s1.3,0,1.6-0.1c0,0.2,0.1,2,0.2,4c-1.7,4.8-2.6,10.3-2.6,16.2l0,0
		c0,10.6,3,20.1,8.8,26.2c0,0,0.3,0.4,1.3,1c0,0,1.8-3.1,4.6-6.6c0.7-0.9,1.5-1.8,2.4-2.6c1.4-1.2,2.7-2.2,3.9-3.2
		c3.6-2.4,7.7-4.3,11.5-5.1c-4.4,2.3-6.8,3.5-10.9,7c-2.6,2.2-6.7,6.2-9.6,11.5c0.6,0.5,1.4,0.9,2.3,1c0.6-0.7,3.7-6.3,8.4-10.9
		c9.6-8.9,20.8-11,26.7-10.9c0.3-2.4,0.5-5,0.5-7.6c0-4.3-0.4-8.3-1.3-12.1l7-7.8C89.1,56.1,89.6,55.6,89.4,55.3"/>
	<path fill="#FFFFFF" d="M37.1,51.8c-0.4-0.2-1.5-0.8-2.4-0.7c-0.9,0-1.7,0.2-2.4,0.7c-0.3-0.2-0.4-0.6-0.2-1.1
		c0.2-0.5,0.5-0.5,0.5-0.5l-0.3-4.5c0,0,1.3-0.9,1.6-1s0.5-0.4,0.5-0.7c0.6,0.4,1.4,1.2,1.8,1.8c0.4,0.6,0.6,1.2,0.7,1.9
		c0,0.7,0,1.6-0.1,2.5c0.3,0.2,0.5,0.4,0.6,0.8C37.4,51.3,37.2,51.5,37.1,51.8"/>
	<path fill="#FFFFFF" d="M77.7,65.6c0-0.9-1.1-3.2-1.7-3.7l10.6-4.7L77.7,65.6z"/>
	<path fill="#FFFFFF" d="M48.7,48.1l9,8.1c-0.9,0.5-2.2,1.8-2.5,2.9L48.7,48.1z"/>
	<path fill="#FFFFFF" d="M53.9,64.2c-0.3,0.5-0.4,0.8-0.5,1.3c-0.1,0.6,0,0.9,0,1.4L50.7,65c0-0.6-0.1-1.7-0.2-2.2
		c0-0.1,0-0.2,0-0.2L53.9,64.2z"/>
	<path fill="#FFFFFF" d="M38.8,65c-0.2-0.3-1-16.8-1-17.4l0.9-0.6v-0.2c-0.6,0-1.4-0.3-1.6-0.7L36.9,41c-0.9-0.1-1.8-0.4-2.1-0.7
		c-0.4-0.4-0.8-0.9-0.3-1.9c0.4,0.3,1.7,0.7,2.9,0.7c0.2,0,0.7,0.5,1,0.6s0.9,0.4,1.1,0.5c0.2,0.1,0.4,0.6,0.4,0.8
		c0.1,0.2,8.3,21.5,8.4,21.7s0.6,3.8,0.6,4.1c0,0.3,1.3,3.1,1.5,3.4c-1.1,0-2.9,0.6-4.3,2c-1.4,1.4-2.7,4.5-3,5.9
		C43,77.6,39,65.3,38.8,65"/>
	<path fill="#FFFFFF" d="M49.2,85.3c-0.4,3.3-1.1,6.1-2.3,8.1c-0.8,1.3-2.9,4-3.7,4.9c0.8-1.6,1.4-5.6,1.4-8.6c0-2-0.6-6.4-0.1-9.3
		c0.6-3.1,1.5-4.9,3.5-6.8c1.1-1,3.2-2.2,6.4-1.4l2.5,4.7c-1.3-0.3-3.1,0-4.3,0.9C50.3,79.7,49.6,82,49.2,85.3"/>
	<path fill="#FFFFFF" d="M49.5,91.8c0.6-1.4,1.4-5.3,1.6-6.6c0.3-1.7,0.6-4.1,2.6-5.8c1-0.8,2.6-0.9,3.3-0.7l2.8,5.8
		c0.3,0.6,1.1,0.8,1.7,0.8C58.8,86.1,52,89.3,49.5,91.8"/>
	<path fill="#FFFFFF" d="M73.7,73.3c-0.5,0.7-0.3,1.4,0,1.9s1.8,3.3,1.8,3.3c0.5,1.3,0.8,1.9,1.3,2.7c0.8,0,1.7,0,2.6,0
		c-1-2.2-3.3-6.5-3.3-6.5L76,71.2C75.3,71.6,74.2,72.5,73.7,73.3"/>
	<path fill="#FFFFFF" d="M61.6,54.8c1.1-0.2,3.7,0,4.5,0.4l-2.6-14.6L61.6,54.8z"/>
	<path fill="#FFFFFF" d="M39.9,41.2c-0.1-0.2-0.2-0.7-0.4-0.8c-0.3-0.1-0.8-0.4-1.1-0.5s-0.8-0.6-1-0.6c-1.1,0-2.4-0.4-2.9-0.7
		c-0.5,0.9-0.1,1.4,0.3,1.9c0.3,0.3,1.3,0.6,2.1,0.7l0.2,5.1c0.2,0.4,1,0.6,1.6,0.6v0.2l-0.9,0.6c0,0.6,0.8,17.1,1,17.4
		c0.2,0.3,4.2,12.6,4.3,13.3c0.3-1.4,1.6-4.5,3-5.9c1.5-1.4,3.2-2.1,4.3-2c-0.2-0.3-1.5-3.1-1.5-3.4s-0.5-3.8-0.6-4.1
		C48.1,62.7,39.9,41.4,39.9,41.2"/>
	<path fill="#FFFFFF" d="M34.6,37.2c2.3,0,3.4,1,4,1.5c0.1-0.8-0.1-1.5-0.8-2.1c-0.6-0.5-1.7-0.9-3.3-0.9c-1.1,0-2.2,0.3-2.9,0.9
		c-0.6,0.5-0.7,1.1-0.6,2C31.3,37.9,32.7,37.2,34.6,37.2"/>
	<path fill="#FFFFFF" d="M30.5,25c-0.1,0.9,0.2,1.8,0.6,2.4c0.2,0.3,0.8,0.9,1.2,0.9c0.6,0,1.1-1.1,2.5-1.1c0.9,0,1.5,1.3,2.2,1.3
		c0.6,0,0.9-0.5,1.5-0.6c0.5-0.1,0.7,0.2,1,0.5c0.2-0.5,0.5-0.8,1.3-1.4c0.9-0.7,4-1.3,5.4-2.5c0.7-0.6,0.8-1.7,0.6-2.4
		c-0.5,0.7-1.9,1.5-3.3,1.5c-0.7,0-2.3-0.3-2.9-0.6c0.3-0.5,0.4-1.1,0.1-1.6c-0.4,0.3-2.4,0.5-3.1,0.5c-0.7,0-2.2-0.3-3.3-0.2
		C31.7,21.8,30.6,23.6,30.5,25"/>
	<path fill="#FFFFFF" d="M34.8,32.7c5.4,0.1,7.8,2.6,7.9,4.6c0.3-0.6,0.2-1.2,0.2-1.9c0-0.5-0.8-2.1-0.9-2.6c0-0.5,0.1-0.9,0.2-1.3
		c-0.3,0.1-1.5,0.5-2,0.1s-0.2-1.5-0.9-1.8s-1.8,0.6-2.6,0.5c-0.7-0.1-1.3-1.1-2.1-1.1s-1.1,0.9-2,1.1c-0.7,0.2-1.6-0.3-2-0.2
		c-0.5,0-0.7,0.4-0.9,0.8c-0.2,0.4-0.4,0.6-0.9,0.8c-0.4,0.1-1.1-0.3-1.4-0.2c0.2,0.2,0.4,1.2,0.1,1.8c-0.3,0.7-0.9,1.5-0.9,2.4
		c-0.1,0.8,0.2,1.1,0.4,1.7C26.9,34.6,30.1,32.7,34.8,32.7"/>
	<path fill="#FFFFFF" d="M31.4,43.1c-0.4,0.1-1.2,0.7-1.5,1.3c0.1,0.4,0.6,1.4,1,1.6c0.1-0.4,0.6-1.2,0.8-1.4
		c0.3-0.2,0.7-0.4,0.9-0.5c0.3-0.1,0.4-0.3,0.4-0.6s0-0.5-0.2-0.8c0.3,0,0.8,0,0.9-0.2c0.2-0.2,0.3-0.5,0.3-0.8s-0.1-0.4-0.4-0.4
		c-0.3,0-1.2-0.1-1.6,0c0,0,0.7-0.4,0.9-0.5s0.3-0.3,0.3-0.5s0-0.6-0.1-1c-1,0-2.8,0.9-3.3,1.4l0.4,0.9h-0.7c-0.1,0.5,0,1.2,0.2,1.6
		C30.2,43.1,30.9,43,31.4,43.1"/>
	<path fill="#FFFFFF" d="M75.4,64.4c-0.1-0.7-1.8-2.6-4.6-4.8c-2.2-1.7-5.4-3.3-8.1-3.3c-4.5,0-6.3,3.1-6.7,4.7c-0.2,1-0.2,2,0,2.6
		c-0.7,0.6-1,1.1-1.1,1.8c-0.1,0.5,0,1.2,0.5,1.7c0-0.7,0.4-1.4,0.8-1.9c0.4-0.6,1.1-0.8,1.7-1.2l0.1,1.2c-0.6,0.3-1.3,1-1.3,1.4v2
		l1.5-0.9l0.3,0.6l-0.6,3.6l0.9-0.2l1.6,0.6l-1.5,1.3v0.5c0,0,0.2-0.3,0.8-0.3c0.5,0,1.9,0.6,1.9,0.6l-0.1,0.3h-0.6h-2.1
		c-0.1,0.4,0.2,0.6,0.4,0.8c0.4-0.1,0.7-0.3,0.9-0.3s0.7,0.1,1.1,0.2l-0.5,0.7c0,0-0.3,0.2-0.7,0.1c-0.3-0.1-0.5,0.3-0.5,0.6
		c0,0.3,0.2,1.1,0.2,1.1c0.2,1.1,1.4,0.9,1.6,0.9c0.7-0.1,3.2-0.9,3.2-0.9l-2.3,3.3l1,3.5c1.5-0.6,6.1-2.3,11.1-3.1
		c-0.5-0.9-0.6-1.3-1.3-2.6l-2.6-5.9l0.4-0.9c0.6,0.2,1.4-0.2,2-0.7s1.2-1.3,1.5-1.8c-0.4-0.2-0.7-0.2-1,0.1c-0.3,0.2-0.5,0.6-1,0.4
		s-0.2-0.7-0.2-1.2c0.1-0.5-0.5-0.5-0.9-0.1s-1.3,0.2-1.8-0.4c-0.6-0.6-3.3-2.8-4.2-3.4c-1.4-0.8-3.3-1-4.6-0.8
		c-0.8,0.1-1.4,0.5-1.7,0.3l-1-1.6l0.2-0.1c0.4,0.2,0.7,0.4,1.2,0.3c0.5-0.2,1.9-0.5,3.3-0.5c2,0,4.5,0.7,5.6,1.2
		c0,1.3,2.7,3,3.9,3.2c1,0.1,1.6-0.1,2.2-0.5l-2.6-2.3l1.4-1.7c0,0,2.2,2.1,2.5,2.5C75.6,65.1,75.5,64.7,75.4,64.4 M59.7,67
		c0,0,1.1-0.6,2.2-0.9c1.6-0.3,3.3,0.6,4.5,1.6l-0.2,0.4l-1.8,0.4c-0.3-0.3-1-0.4-1.7-0.4c-0.6,0-1.1,0.3-1.1,0.3l0.3,0.6l-0.8,0.2
		c-0.4-0.5-0.9-1-1.4-1.2V67z M57.1,63c-0.5-1.5,0.8-3.1,1.3-3.6l0.9,2C58.6,61.7,57.6,62.5,57.1,63 M65.1,61.3
		c-0.8-0.6-3.5-0.5-4.6-0.2l-0.8-2.4c0.6-0.5,1.8-0.8,2.9-0.8c1.1,0,2.2,0.3,3.1,0.7L65.1,61.3z M70.4,63.7c-1.1-0.7-3.3-1.8-4-2
		l1-2.5c0.8,0.4,3.8,2.2,4.3,2.7L70.4,63.7z"/>
	<path fill="#FFFFFF" d="M70.1,57c1,0.4,3.1,2.2,3.7,2.6l5.4-11.5L70.1,57z"/>
	<path fill="#616265" d="M381.1,68c1.6,0,3.1,1.3,3.1,3.2c0,1.9-1.5,3.2-3.1,3.2s-3.1-1.3-3.1-3.2S379.5,68,381.1,68 M381.1,73.7
		c1.3,0,2.4-1,2.4-2.5s-1.1-2.5-2.4-2.5s-2.4,1-2.4,2.5C378.8,72.7,379.8,73.7,381.1,73.7 M379.9,69.5h1.3c0.9,0,1.3,0.3,1.3,1
		c0,0.6-0.4,0.9-0.9,0.9l0.9,1.5h-0.7l-0.9-1.5h-0.5V73h-0.6v-3.5H379.9z M380.6,71h0.6c0.4,0,0.7-0.1,0.7-0.5s-0.4-0.5-0.7-0.5
		h-0.6V71z"/>
	<rect x="96.3" y="84.1" fill="#616265" width="108.5" height="1.1"/>
	<rect x="219.7" y="84.1" fill="#616265" width="156.5" height="1.1"/>
	<g>
		<path fill="#616265" d="M158.8,94.8h2.8v15.1h-2.8V94.8z"/>
		<path fill="#616265" d="M170,94.8h2.6l6.3,10.7l0,0V94.8h2.6v15.1H179l-6.3-10.7l0,0v10.7H170V94.8z"/>
		<path fill="#616265" d="M190.4,105.3c1.1,1.6,2.7,2.3,4.6,2.3c1.4,0,3.2-0.5,3.2-1.9c0-1.2-1.1-1.5-3.1-2l-1.7-0.4
			c-2.4-0.6-4.5-1.4-4.5-4.2c0-3.2,3-4.7,5.8-4.7c2.6,0,4.7,1,6.3,3l-2.4,1.8c-0.7-1.4-2.1-2.2-4-2.2c-1.6,0-2.9,0.6-2.9,1.7
			c0,1.3,1.4,1.5,3.1,1.9l1.8,0.4c2.2,0.5,4.4,1.4,4.4,4.3c0,3.7-3.5,5-6.6,5c-2.5,0-5.1-1.1-6.5-3.2L190.4,105.3z"/>
		<path fill="#616265" d="M220.7,105.2c0,3.1-2.4,5-6.1,5c-3.6,0-6.1-1.9-6.1-5V94.8h2.8v9.7c0,1.8,0.8,3,3.2,3s3.2-1.2,3.2-3v-9.7
			h2.8v10.4H220.7z"/>
		<path fill="#616265" d="M228.8,94.8h6.3c3.2,0,5.1,1.9,5.1,4.6c0,3.4-2.3,4.2-3,4.5l3.4,6.1h-3.3l-2.9-5.6h-2.7v5.6h-2.8V94.8
			H228.8z M231.6,101.8h3.1c1.4,0,2.5-0.8,2.5-2.3c0-1.4-0.9-2.3-2.9-2.3h-2.7L231.6,101.8L231.6,101.8z"/>
		<path fill="#616265" d="M251.1,94.8h3.3l5,15.1h-3l-0.9-2.9h-5.7l-0.9,2.9h-3L251.1,94.8z M252.8,97.5L252.8,97.5l-2.1,6.9h4.2
			L252.8,97.5z"/>
		<path fill="#616265" d="M265.9,94.8h2.6l6.3,10.7l0,0V94.8h2.6v15.1h-2.6l-6.3-10.7l0,0v10.7h-2.6V94.8z"/>
		<path fill="#616265" d="M295.3,99.9c-0.2-1.7-1.6-2.8-3.3-2.8c-3,0-4.3,2.7-4.3,5.3c0,2.6,1.2,5.3,4.3,5.3c2,0,3.1-1.3,3.6-3.1
			l2.6,1.2c-1.2,3-3.2,4.5-6.2,4.5c-4.8,0-7.2-3.7-7.2-7.9c0-4.3,2.7-7.9,7.2-7.9c3,0,5.3,1.6,6.1,4.7L295.3,99.9z"/>
		<path fill="#616265" d="M304.3,94.8H315v2.6h-7.8v3.4h7.2v2.5h-7.2v3.9h8.4v2.6h-11.2v-15H304.3z"/>
	</g>
</g>
</svg>
